<svg width="393" height="322" viewBox="0 0 393 322" fill="none" xmlns="http://www.w3.org/2000/svg">
<path d="M307.78 153.89C307.78 238.88 238.88 307.78 153.89 307.78C68.8998 307.78 0 238.88 0 153.89C0 68.8999 68.8984 0 153.89 0C238.882 0 307.78 68.8985 307.78 153.89Z" fill="url(#paint0_linear_5_1169)"/>
<path d="M14.9565 184.747C13.7565 185.947 14.4565 187.914 14.9565 188.747C18.4565 191.747 25.9565 198.247 27.9565 200.247C29.9565 202.247 32.1232 201.414 32.9565 200.747C36.2899 196.914 43.4383 189.105 44.4565 187.747C45.9565 185.747 44.9565 184.58 44.4565 183.747C40.2899 180.747 31.5565 174.447 29.9565 173.247C28.3565 172.047 26.6232 172.747 25.9565 173.247C22.7899 176.58 16.1565 183.547 14.9565 184.747Z" fill="#6329A5"/>
<g clip-path="url(#clip0_5_1169)">
<ellipse cx="303.957" cy="254.747" rx="70" ry="4" fill="#E4BDBD"/>
<path d="M287.522 235.405H316.978C318.694 235.405 320.097 234.008 320.097 232.3C320.097 230.592 318.694 229.194 316.978 229.194H287.522C285.806 229.194 284.402 230.592 284.402 232.3C284.402 234.008 285.806 235.405 287.522 235.405Z" fill="#FAA43E"/>
<path d="M287.878 235.405H302.344V229.194H287.878V235.405Z" fill="#FFCC99"/>
<path d="M303.07 235.405H304.211V229.194H303.07V235.405Z" fill="#FFCC99"/>
<path d="M304.949 235.405H305.566V229.194H304.949V235.405Z" fill="#FFCC99"/>
<g style="mix-blend-mode:multiply" opacity="0.46">
<path d="M316.978 235.405H287.522C285.806 235.405 284.402 234.008 284.402 232.3H320.097C320.097 234.008 318.694 235.405 316.978 235.405Z" fill="#FAA43E"/>
</g>
<path d="M287.522 241.589H316.978C318.701 241.589 320.097 240.198 320.097 238.483C320.097 236.768 318.701 235.378 316.978 235.378H287.522C285.799 235.378 284.402 236.768 284.402 238.483C284.402 240.198 285.799 241.589 287.522 241.589Z" fill="#FAA43E"/>
<path d="M287.878 241.589H302.344V235.378H287.878V241.589Z" fill="#FFCC99"/>
<path d="M303.07 241.589H304.211V235.378H303.07V241.589Z" fill="#FFCC99"/>
<path d="M304.949 241.589H305.566V235.378H304.949V241.589Z" fill="#FFCC99"/>
<g style="mix-blend-mode:multiply" opacity="0.46">
<path d="M316.978 241.589H287.522C285.806 241.589 284.402 240.191 284.402 238.483H320.097C320.097 240.191 318.694 241.589 316.978 241.589Z" fill="#FAA43E"/>
</g>
<path d="M316.978 247.772H287.522C285.8 247.772 284.402 246.381 284.402 244.667C284.402 242.953 285.8 241.561 287.522 241.561H316.978C318.699 241.561 320.097 242.953 320.097 244.667C320.097 246.381 318.699 247.772 316.978 247.772Z" fill="#FAA43E"/>
<path d="M287.878 247.772H302.344V241.561H287.878V247.772Z" fill="#FFCC99"/>
<path d="M303.07 247.772H304.211V241.561H303.07V247.772Z" fill="#FFCC99"/>
<path d="M304.949 247.772H305.566V241.561H304.949V247.772Z" fill="#FFCC99"/>
<g style="mix-blend-mode:multiply" opacity="0.46">
<path d="M316.978 247.772H287.522C285.806 247.772 284.402 246.374 284.402 244.667H320.097C320.097 246.375 318.694 247.772 316.978 247.772Z" fill="#FAA43E"/>
</g>
<path d="M287.522 253.956H316.978C318.694 253.956 320.097 252.558 320.097 250.85C320.097 249.142 318.694 247.745 316.978 247.745H287.522C285.806 247.745 284.402 249.142 284.402 250.85C284.402 252.558 285.806 253.956 287.522 253.956Z" fill="#FAA43E"/>
<path d="M287.878 253.956H302.344V247.745H287.878V253.956Z" fill="#FFCC99"/>
<path d="M303.07 253.956H304.211V247.745H303.07V253.956Z" fill="#FFCC99"/>
<path d="M304.949 253.956H305.566V247.745H304.949V253.956Z" fill="#FFCC99"/>
<g style="mix-blend-mode:multiply" opacity="0.46">
<path d="M316.978 253.956H287.522C285.806 253.956 284.402 252.558 284.402 250.85H320.097C320.097 252.558 318.694 253.956 316.978 253.956Z" fill="#FAA43E"/>
</g>
<path d="M287.522 229.194H316.978C318.694 229.194 320.097 227.796 320.097 226.088C320.097 224.38 318.694 222.983 316.978 222.983H287.522C285.806 222.983 284.402 224.38 284.402 226.088C284.402 227.796 285.806 229.194 287.522 229.194Z" fill="#FAA43E"/>
<path d="M287.878 229.194H302.344V222.983H287.878V229.194Z" fill="#FFCC99"/>
<path d="M303.07 229.194H304.211V222.983H303.07V229.194Z" fill="#FFCC99"/>
<path d="M304.949 229.194H305.566V222.983H304.949V229.194Z" fill="#FFCC99"/>
<g style="mix-blend-mode:multiply" opacity="0.46">
<path d="M316.978 229.194H287.522C285.806 229.194 284.402 227.796 284.402 226.088H320.097C320.097 227.796 318.694 229.194 316.978 229.194Z" fill="#FAA43E"/>
</g>
<path d="M287.522 222.983H316.978C318.694 222.983 320.097 221.585 320.097 219.877C320.097 218.169 318.694 216.772 316.978 216.772H287.522C285.806 216.772 284.402 218.169 284.402 219.877C284.402 221.585 285.806 222.983 287.522 222.983Z" fill="#FAA43E"/>
<path d="M287.878 222.983H302.344V216.772H287.878V222.983Z" fill="#FFCC99"/>
<path d="M303.07 222.983H304.211V216.772H303.07V222.983Z" fill="#FFCC99"/>
<path d="M304.949 222.983H305.566V216.772H304.949V222.983Z" fill="#FFCC99"/>
<g style="mix-blend-mode:multiply" opacity="0.46">
<path d="M316.978 222.983H287.522C285.806 222.983 284.402 221.585 284.402 219.877H320.097C320.097 221.585 318.694 222.983 316.978 222.983Z" fill="#FAA43E"/>
</g>
<path d="M299.06 209.855C297.027 210.01 294.741 209.829 292.21 209.312C292.19 209.308 292.176 209.288 292.181 209.268C292.185 209.248 292.204 209.235 292.225 209.239C298.351 210.492 303.038 209.765 306.158 207.08C310.572 203.281 310.25 196.791 310.246 196.726C310.245 196.706 310.26 196.688 310.28 196.687H310.281C310.302 196.685 310.32 196.701 310.32 196.722C310.324 196.787 310.649 203.313 306.207 207.137C304.36 208.727 301.968 209.634 299.06 209.856L299.06 209.855Z" fill="white"/>
<path d="M316.978 216.799H287.522C285.8 216.799 284.402 215.408 284.402 213.694C284.402 211.98 285.8 210.588 287.522 210.588H316.978C318.699 210.588 320.097 211.98 320.097 213.694C320.097 215.408 318.699 216.799 316.978 216.799Z" fill="#FAA43E"/>
<path d="M287.878 216.799H302.344V210.588H287.878V216.799Z" fill="#FFCC99"/>
<path d="M303.07 216.799H304.211V210.588H303.07V216.799Z" fill="#FFCC99"/>
<path d="M304.949 216.799H305.566V210.588H304.949V216.799Z" fill="#FFCC99"/>
<g style="mix-blend-mode:multiply" opacity="0.46">
<path d="M316.978 216.799H287.522C285.806 216.799 284.402 215.401 284.402 213.694H320.097C320.097 215.402 318.694 216.799 316.978 216.799Z" fill="#FAA43E"/>
</g>
<path d="M372.126 245.377C383.523 234.031 383.523 215.636 372.126 204.29C360.729 192.945 342.251 192.945 330.854 204.29C319.457 215.636 319.457 234.031 330.854 245.377C342.251 256.723 360.729 256.723 372.126 245.377Z" fill="#FAA43E"/>
<path d="M339.942 213.198C339.942 212.3 340.676 211.572 341.581 211.572H362.558C363.464 211.572 364.198 212.3 364.198 213.198C364.198 214.096 363.464 214.824 362.558 214.824H356.166C357.105 216.019 357.73 217.468 357.914 219.051H362.558C363.464 219.051 364.198 219.779 364.198 220.677C364.198 221.575 363.464 222.303 362.558 222.303H357.914C357.426 226.513 353.822 229.781 349.448 229.781H345.056L354.77 237.972C355.46 238.555 355.544 239.579 354.957 240.264C354.37 240.948 353.338 241.031 352.647 240.449L340.894 230.54C339.268 229.169 340.247 226.53 342.381 226.53H349.446C352.007 226.53 354.139 224.71 354.599 222.303H341.58C340.675 222.303 339.941 221.575 339.941 220.677C339.941 219.779 340.675 219.051 341.58 219.051H354.599C354.139 216.645 352.007 214.824 349.446 214.824H341.58C340.675 214.824 339.941 214.096 339.941 213.198H339.942Z" fill="#FFDFC2"/>
<path d="M348.804 250.973C343.019 250.396 337.62 247.945 333.331 243.897C328.216 239.067 325.297 232.545 325.11 225.53C324.724 211.05 336.244 198.955 350.79 198.571C365.341 198.194 377.485 209.655 377.87 224.136C378.057 231.151 375.489 237.819 370.639 242.911C365.788 248.003 359.236 250.91 352.19 251.096C351.051 251.125 349.919 251.084 348.804 250.973ZM354.049 199.59C352.987 199.484 351.908 199.443 350.815 199.472C336.767 199.844 325.642 211.523 326.016 225.506C326.196 232.28 329.016 238.579 333.955 243.243C338.894 247.905 345.362 250.373 352.166 250.195C358.971 250.015 365.298 247.208 369.982 242.291C374.666 237.374 377.146 230.935 376.965 224.161C376.622 211.266 366.62 200.844 354.049 199.59Z" fill="#E88C46"/>
<path d="M349.007 250.645C343.222 250.068 337.823 247.617 333.534 243.569C328.419 238.739 325.5 232.217 325.313 225.202C324.927 210.722 336.447 198.627 350.993 198.243C365.544 197.866 377.688 209.327 378.073 223.808C378.26 230.824 375.693 237.491 370.842 242.583C365.992 247.676 359.439 250.582 352.393 250.768C351.254 250.797 350.123 250.756 349.007 250.645ZM354.252 199.262C353.19 199.156 352.111 199.115 351.018 199.144C336.97 199.516 325.845 211.195 326.219 225.178C326.399 231.952 329.219 238.252 334.158 242.915C339.097 247.577 345.565 250.045 352.369 249.867C359.174 249.688 365.501 246.88 370.185 241.963C374.869 237.046 377.349 230.607 377.168 223.834C376.825 210.938 366.823 200.516 354.252 199.262Z" fill="#FFD7B3"/>
<path d="M246.076 235.602H275.532C277.248 235.602 278.652 234.204 278.652 232.496C278.652 230.788 277.248 229.391 275.532 229.391H246.076C244.36 229.391 242.957 230.788 242.957 232.496C242.957 234.204 244.36 235.602 246.076 235.602Z" fill="#FAA43E"/>
<path d="M246.433 235.602H260.898V229.391H246.433V235.602Z" fill="#FFCC99"/>
<path d="M261.624 235.602H262.766V229.391H261.624V235.602Z" fill="#FFCC99"/>
<path d="M263.503 235.602H264.12V229.391H263.503V235.602Z" fill="#FFCC99"/>
<g style="mix-blend-mode:multiply" opacity="0.46">
<path d="M275.532 235.602H246.076C244.36 235.602 242.957 234.204 242.957 232.496H278.652C278.652 234.204 277.248 235.602 275.532 235.602Z" fill="#FAA43E"/>
</g>
<path d="M246.076 241.785H275.532C277.255 241.785 278.652 240.395 278.652 238.68C278.652 236.964 277.255 235.574 275.532 235.574H246.076C244.353 235.574 242.957 236.964 242.957 238.68C242.957 240.395 244.353 241.785 246.076 241.785Z" fill="#FAA43E"/>
<path d="M246.433 241.785H260.898V235.574H246.433V241.785Z" fill="#FFCC99"/>
<path d="M261.624 241.785H262.766V235.574H261.624V241.785Z" fill="#FFCC99"/>
<path d="M263.503 241.785H264.12V235.574H263.503V241.785Z" fill="#FFCC99"/>
<g style="mix-blend-mode:multiply" opacity="0.46">
<path d="M275.532 241.785H246.076C244.36 241.785 242.957 240.387 242.957 238.68H278.652C278.652 240.388 277.248 241.785 275.532 241.785Z" fill="#FAA43E"/>
</g>
<path d="M275.532 247.969H246.076C244.355 247.969 242.957 246.577 242.957 244.863C242.957 243.149 244.355 241.758 246.076 241.758H275.532C277.254 241.758 278.652 243.149 278.652 244.863C278.652 246.577 277.254 247.969 275.532 247.969Z" fill="#FAA43E"/>
<path d="M246.433 247.969H260.898V241.758H246.433V247.969Z" fill="#FFCC99"/>
<path d="M261.624 247.969H262.766V241.758H261.624V247.969Z" fill="#FFCC99"/>
<path d="M263.503 247.969H264.12V241.758H263.503V247.969Z" fill="#FFCC99"/>
<g style="mix-blend-mode:multiply" opacity="0.46">
<path d="M275.532 247.969H246.076C244.36 247.969 242.957 246.571 242.957 244.863H278.652C278.652 246.571 277.248 247.969 275.532 247.969Z" fill="#FAA43E"/>
</g>
<path d="M246.076 254.152H275.532C277.248 254.152 278.652 252.755 278.652 251.046C278.652 249.338 277.248 247.941 275.532 247.941H246.076C244.36 247.941 242.957 249.338 242.957 251.046C242.957 252.755 244.36 254.152 246.076 254.152Z" fill="#FAA43E"/>
<path d="M246.433 254.152H260.898V247.941H246.433V254.152Z" fill="#FFCC99"/>
<path d="M261.624 254.152H262.766V247.941H261.624V254.152Z" fill="#FFCC99"/>
<path d="M263.503 254.152H264.12V247.941H263.503V254.152Z" fill="#FFCC99"/>
<g style="mix-blend-mode:multiply" opacity="0.46">
<path d="M275.532 254.152H246.076C244.36 254.152 242.957 252.755 242.957 251.046H278.652C278.652 252.755 277.248 254.152 275.532 254.152Z" fill="#FAA43E"/>
</g>
<path d="M246.076 229.39H275.532C277.248 229.39 278.652 227.993 278.652 226.285C278.652 224.577 277.248 223.179 275.532 223.179H246.076C244.36 223.179 242.957 224.577 242.957 226.285C242.957 227.993 244.36 229.39 246.076 229.39Z" fill="#FAA43E"/>
<path d="M246.433 229.391H260.898V223.18H246.433V229.391Z" fill="#FFCC99"/>
<path d="M261.624 229.391H262.766V223.18H261.624V229.391Z" fill="#FFCC99"/>
<path d="M263.503 229.391H264.12V223.18H263.503V229.391Z" fill="#FFCC99"/>
<g style="mix-blend-mode:multiply" opacity="0.46">
<path d="M275.532 229.39H246.076C244.36 229.39 242.957 227.993 242.957 226.285H278.652C278.652 227.993 277.248 229.39 275.532 229.39Z" fill="#FAA43E"/>
</g>
</g>
<path d="M202.527 270.009C202.527 270.009 203.934 280.324 212.557 288.916C213.63 289.985 215.431 288.941 215.04 287.477L209.407 266.385L202.527 270.009Z" fill="#EDAC80"/>
<path d="M24.1792 299.921C24.1792 299.921 19.6468 301.277 17.2295 304.16C17.2295 304.16 10.305 312.423 4.60121 317.86C3.22026 319.176 4.22715 321.696 6.02295 321.418C11.8617 320.509 20.5075 317.649 25.8414 308.909L24.1792 299.923V299.921Z" fill="#EDAC80"/>
<path d="M115.273 98.3154C125.616 95.1949 137.154 101.676 143.973 109.076C160.747 127.277 166.392 156.982 164.688 180.891C162.033 218.149 140.134 250.269 109.791 270.978C107.136 272.789 104.431 274.524 101.68 276.187C88.1012 284.396 73.5773 290.888 58.8973 296.846C56.8357 297.683 25.9303 309.338 25.8403 308.907L23.6465 299.921C23.6198 299.789 33.451 295.684 34.0079 295.42C42.4736 291.395 50.3965 286.648 58.2589 281.599C73.9556 271.522 88.2193 258.861 98.8704 243.467C116.481 218.016 121.092 186.47 115.563 156.362C113.536 145.332 108.568 135.126 105.983 124.243C104.625 118.521 103.965 112.357 106.084 106.871C107.882 102.221 111.269 99.5219 115.272 98.3154H115.273Z" fill="#011721"/>
<path d="M147.26 130.863C147.26 130.863 203.627 131.598 227.568 84.6635L224.296 80.2437C224.296 80.2437 201.478 123.19 138.144 103.891L134.994 127.405L147.26 130.865V130.863Z" fill="white"/>
<path d="M109.928 101.335C109.928 101.335 84.494 111.179 41.7183 168.612L45.2199 171.084C45.2199 171.084 72.68 137.383 109.928 133.315L115.603 118.358L109.928 101.335Z" fill="white"/>
<path d="M164.319 160.152C162.409 141.473 156.123 122.259 143.975 109.075C137.156 101.675 125.617 95.1939 115.274 98.3144C111.272 99.5224 107.884 102.22 106.087 106.87C103.967 112.356 104.628 118.52 105.986 124.242C108.569 135.125 113.539 145.331 115.565 156.361C116.432 161.077 117.018 165.83 117.375 170.589H120.596L162.876 162.448L164.321 160.152H164.319Z" fill="white"/>
<path d="M126.547 164.836C121.851 166.661 117.268 168.719 117.34 169.82C117.34 169.82 120.565 218.558 192.205 196.722C192.205 196.722 189.663 246.377 202.526 270.008L208.808 267.316C209.862 266.865 210.809 259.708 211.049 258.701C212.868 251.103 214.375 243.427 215.599 235.71C219.536 210.894 220.62 185.469 215.86 160.686C215.704 159.873 215.516 159.01 214.924 158.432C214.382 157.9 213.602 157.711 212.862 157.54C195.088 153.462 178.151 151.51 160.109 154.894C151.983 156.303 143.987 158.462 136.252 161.316C135.266 161.68 130.859 163.16 126.547 164.836Z" fill="#062332"/>
<path d="M224.296 80.242C224.296 80.242 227.082 73.1601 231.941 69.7471C231.941 69.7471 233.348 70.0072 231.889 73.0855C231.534 73.8323 231.47 74.6662 231.66 75.4692C232.041 77.0821 231.965 80.3376 227.569 84.6619L224.296 80.242Z" fill="#EDAC80"/>
<path d="M192.207 197.117C192.045 197.117 191.895 197.017 191.837 196.856C191.762 196.651 191.868 196.425 192.073 196.352C192.149 196.324 199.684 193.577 203.394 190.509C203.561 190.371 203.81 190.395 203.949 190.561C204.088 190.728 204.064 190.977 203.897 191.116C200.08 194.273 192.657 196.98 192.342 197.094C192.298 197.11 192.253 197.118 192.208 197.118L192.207 197.117Z" fill="white"/>
<path d="M29.8298 304.884C29.6905 304.884 29.5569 304.811 29.4838 304.68C28.2829 302.511 27.5811 298.248 27.5516 298.068C27.5164 297.854 27.6627 297.651 27.8765 297.617C28.0832 297.573 28.2941 297.726 28.3279 297.942C28.3349 297.984 29.0366 302.249 30.1715 304.299C30.2769 304.491 30.208 304.73 30.0182 304.835C29.9577 304.867 29.893 304.884 29.8283 304.884H29.8298Z" fill="white"/>
<path d="M199.913 264.749C199.699 264.749 199.523 264.578 199.519 264.364C199.515 264.148 199.688 263.968 199.904 263.962C199.962 263.962 205.646 263.783 209.028 258.804C209.151 258.622 209.397 258.576 209.575 258.7C209.755 258.822 209.803 259.067 209.681 259.247C206.062 264.572 200.169 264.745 199.92 264.751H199.913V264.749Z" fill="white"/>
<path d="M115.273 98.3154C115.273 98.3154 125.845 142.426 97.484 163.5C97.484 163.5 95.7121 169.38 95.3169 172.939C95.3169 172.939 102.112 171.181 104.722 167.833C104.722 167.833 126.956 142.047 115.273 98.3154Z" fill="#05293C"/>
<path d="M157.045 130.565C156.89 130.565 156.742 130.473 156.68 130.321C156.657 130.263 154.338 124.606 150.85 118.661C150.74 118.474 150.802 118.233 150.991 118.123C151.179 118.012 151.421 118.076 151.529 118.263C155.048 124.258 157.386 129.968 157.41 130.024C157.493 130.227 157.396 130.456 157.195 130.537C157.146 130.557 157.095 130.567 157.046 130.567L157.045 130.565Z" fill="#05293C"/>
<path d="M42.7294 182.144C42.6352 182.144 42.5396 182.111 42.4651 182.042C42.3047 181.895 42.2921 181.646 42.4383 181.485L43.6365 180.166C43.4452 177.844 42.6226 176.22 41.191 175.341C38.093 173.44 33.0839 175.525 33.0347 175.546C32.8364 175.633 32.6044 175.538 32.5186 175.338C32.4328 175.138 32.527 174.906 32.7267 174.822C32.9461 174.728 38.1549 172.555 41.6002 174.669C43.2976 175.709 44.251 177.598 44.4338 180.278L44.4451 180.446L43.0191 182.014C42.9418 182.099 42.8349 182.143 42.728 182.143L42.7294 182.144Z" fill="#05293C"/>
<path d="M31.0015 201.991C30.2083 201.991 29.4124 201.727 28.7641 201.187L14.7661 189.522C14.0208 188.901 13.5624 187.987 13.5104 187.018C13.4583 186.049 13.8155 185.092 14.4891 184.394L25.4945 173.009C26.7152 171.749 28.6952 171.586 30.1057 172.631L44.1191 183.044C44.901 183.625 45.4086 184.514 45.5141 185.481C45.6196 186.449 45.3116 187.428 44.6703 188.16L33.6509 200.796C32.9646 201.584 31.9858 201.989 31.0029 201.989L31.0015 201.991ZM28.016 172.729C27.3002 172.729 26.5872 173.009 26.0598 173.556L15.0544 184.94C14.5243 185.49 14.2543 186.213 14.2951 186.975C14.3358 187.738 14.6818 188.427 15.2682 188.917L29.2661 200.582C30.3925 201.52 32.0913 201.385 33.0532 200.279L44.0741 187.644C44.5775 187.068 44.8095 186.328 44.7266 185.566C44.645 184.805 44.2611 184.133 43.6452 183.676L29.6318 173.262C29.1494 172.905 28.5799 172.729 28.0131 172.729H28.016Z" fill="#05293C"/>
<path d="M41.7198 168.611C41.7198 168.611 37.3492 171.442 37.8076 175.69C37.9173 176.707 38.9397 177.303 39.879 176.898C40.5091 176.626 41.1967 176.165 41.7213 175.382C41.7213 175.382 40.938 177.174 41.5989 177.261C42.115 177.328 43.8658 176.721 45.2228 171.082L41.7213 168.609L41.7198 168.611Z" fill="#EDAC80"/>
<path d="M105.135 78.2524C104.435 78.9596 103.951 79.7984 103.669 80.6872C101.451 79.797 98.8281 80.2522 97.0507 82.0487C94.6791 84.446 94.7124 88.323 97.1251 90.71C97.1361 90.7209 97.1471 90.729 97.1567 90.7385C95.266 93.147 95.4488 96.6532 97.6925 98.873C99.3468 100.51 101.689 101.02 103.764 100.406C104.065 101.063 104.483 101.68 105.027 102.218C107.44 104.605 111.317 104.597 113.689 102.199C116.061 99.8021 116.027 95.9251 113.615 93.5381C111.96 91.9015 112.096 88.6917 113.874 86.8951C116.245 84.4978 116.212 80.6208 113.799 78.2338C111.386 75.8468 107.509 75.8552 105.138 78.2524L105.135 78.2524Z" fill="#011721"/>
<path d="M116.854 98.5695L116.206 96.1606L121.072 91.7654L119.938 84.3076L111.887 84.1147C111.887 84.1147 112.64 90.2682 110.233 92.7012L106.837 92.4681C106.837 92.4681 106.096 96.3814 110.872 97.2195C110.872 97.2195 113.294 98.7205 111.681 101.459L113.976 103.331L116.854 98.5695Z" fill="#EDAC80"/>
<defs>
<linearGradient id="paint0_linear_5_1169" x1="153.89" y1="0" x2="160.457" y2="284.247" gradientUnits="userSpaceOnUse">
<stop stop-color="#C7A3F4"/>
<stop offset="1" stop-color="#F8E4E2"/>
</linearGradient>
<clipPath id="clip0_5_1169">
<rect width="159.69" height="85.7766" fill="white" transform="translate(232.957 168.747)"/>
</clipPath>
</defs>
</svg>
