<svg width="428" height="441" viewBox="0 0 428 441" fill="none" xmlns="http://www.w3.org/2000/svg">
<path d="M284.664 425.542H147.499C64.1194 397.154 4.16125 318.444 4.16125 225.783C4.16125 109.215 99.041 14.7174 216.081 14.7174C333.12 14.7174 428 109.215 428 225.783C428 318.444 368.044 397.154 284.662 425.542H284.664Z" fill="url(#paint0_linear_5_721)"/>
<path d="M52.2944 91.8458C69.7431 87.2165 88.0719 84.735 106.985 84.735C224.024 84.735 318.904 179.232 318.904 295.8C318.904 344.725 302.179 389.751 274.127 425.542H147.498C64.1178 397.154 4.16125 318.444 4.16125 225.782C4.16125 174.932 22.2199 128.283 52.2944 91.8458Z" fill="#EEE3FC"/>
<path d="M14.1498 138.305L14.1496 138.306C13.9616 138.766 14.1815 139.293 14.644 139.482C14.7553 139.528 14.8701 139.55 14.9863 139.55C15.3429 139.55 15.6783 139.337 15.822 138.99L15.8227 138.988C44.7626 68.2584 94.8932 34.8713 131.849 19.3113C171.846 2.47127 205.456 2.30567 205.878 2.30567H205.882C206.379 2.30567 206.786 1.90325 206.786 1.40284C206.786 0.902417 206.379 0.5 205.882 0.5H205.88C205.368 0.5 171.481 0.672759 131.18 17.6339C107.456 27.6177 86.1737 41.3802 67.9281 58.541C45.1196 79.9912 27.0284 106.83 14.1498 138.305Z" fill="white" stroke="white"/>
<path d="M329.731 316.076H322.216V422.331H329.731V316.076Z" fill="#8B6AAB"/>
<path d="M306.681 247.197L228.417 255.193C221.894 255.86 216.828 261.148 216.482 267.671C215.438 287.337 220.248 334.302 266.259 423.303C268.582 427.797 275.435 425.776 274.924 420.747C270.983 381.988 265.029 322.305 260.902 302.882L306.681 247.199V247.197Z" fill="#05293C"/>
<path d="M261.525 410.449C251.861 362.379 265.028 329.856 265.029 329.849C263.465 317.843 262.033 308.198 260.904 302.879L267.571 294.769L216.082 304.878C218.996 334.706 230.03 360.463 259.871 411.557L261.527 410.449H261.525Z" fill="#011721"/>
<path d="M266.259 423.301C268.582 427.795 275.435 425.774 274.924 420.745C274.351 415.112 273.735 409.029 273.089 402.702L260.206 411.334C262.149 415.246 264.146 419.215 266.259 423.301Z" fill="#EDAC80"/>
<path d="M322.619 121.654C322.619 121.654 313.78 113.786 321.868 106.678C321.868 106.678 325.039 105.257 327.26 106.678C327.26 106.678 330.748 101.781 337.251 101.781C337.251 101.781 343.436 102.887 344.387 105.889C344.387 105.889 352.792 106.205 352.95 114.26C352.95 114.26 356.474 120.578 351.936 125.001C351.936 125.001 356.777 134.509 343.444 137.811L339.469 140.637L334.869 135.583L322.615 121.654H322.619Z" fill="#011721"/>
<path d="M274.28 258.889L216.362 273.971C216.139 277.023 216.657 281.092 216.624 284.875L226.886 286.819L279.456 280.315L284.411 274.287L274.28 258.891V258.889Z" fill="#011721"/>
<path d="M383.494 109.037C383.494 109.037 367.325 126.799 347.243 133.522C344.881 134.313 340.98 134.893 340.98 134.893C337.358 136.89 333.638 140.414 329.734 139.05C323.839 136.993 316.629 127.444 312.884 122.072C296.497 98.5573 261.182 47.6275 238.545 13.0996C236.623 10.167 232.102 12.5582 233.463 15.7858C245.845 45.1348 265.439 89.5047 284.609 124.324C297.846 148.367 304.916 175.291 305.473 202.705C305.824 220.016 306.252 237.794 306.683 247.196C306.683 247.196 311.074 264.174 362.476 271.64C363.944 252.645 365.764 223.688 365.45 179.368C365.366 167.516 371.105 156.363 380.807 149.5L391.719 139.424C400.367 131.44 406.091 120.808 407.982 109.216L418.67 43.7232C419.476 38.7861 412.482 36.8525 410.618 41.4964L383.493 109.037H383.494Z" fill="white"/>
<path d="M306.681 247.197L202.418 284.822C202.418 284.822 165.598 336.036 137.347 433.826C135.707 439.506 143.257 443.18 146.731 438.388C173.071 402.054 221.751 335.132 228.86 326.962C228.86 326.962 284.571 319.816 321.863 313.064C334.466 310.783 360.323 299.497 362.475 271.643C311.072 264.178 306.681 247.199 306.681 247.199V247.197Z" fill="#05293C"/>
<path d="M287.202 308.452L224.744 321.495L158.381 422.331C185.382 385.157 222.704 334.034 228.86 326.959C228.86 326.959 284.571 319.812 321.863 313.061C334.466 310.779 360.323 299.493 362.475 271.64C357.655 270.94 353.25 270.156 349.223 269.311C349.223 269.311 352.68 296.412 287.202 308.451V308.452Z" fill="#011721"/>
<path d="M314.635 256.14C321.985 261.416 335.971 267.792 362.476 271.641C363.944 252.647 365.764 223.689 365.45 179.369C365.366 167.518 371.105 156.364 380.807 149.501C380.807 149.501 379.585 150.254 377.608 151.722C363.145 162.46 353.334 178.246 349.676 195.84C345.452 216.16 340.969 261.801 314.633 256.142L314.635 256.14Z" fill="#EAEAEA"/>
<path d="M332.533 136.83C332.533 135.604 331.535 134.609 330.304 134.609H329.032C327.613 134.609 326.261 134.012 325.308 132.964L321.137 129.032L326.599 117.51C326.599 117.51 326.615 128.373 336.152 128.28C336.152 128.28 338.183 123.907 340.402 126.446C340.402 126.446 340.119 130.209 338.419 132.278C338.419 132.278 337.946 135.099 340.977 134.893C340.977 134.893 333.319 141.683 332.658 146.951L329.729 139.05H330.302C331.533 139.05 332.531 138.056 332.531 136.83H332.533Z" fill="#EDAC80"/>
<path d="M238.543 13.0996C236.621 10.167 232.101 12.5582 233.461 15.7858C235.62 20.9002 237.999 26.4786 240.554 32.3745L250.101 30.5263C246.014 24.4226 242.12 18.5557 238.541 13.098L238.543 13.0996Z" fill="#EDAC80"/>
<path d="M415.322 64.2501L418.673 43.7232C419.479 38.786 412.485 36.8524 410.621 41.4963L404.895 55.7519L415.324 64.2501H415.322Z" fill="#EDAC80"/>
<path d="M143.832 412.65C141.636 419.456 139.467 426.493 137.349 433.825C135.708 439.505 143.259 443.178 146.732 438.386C150.145 433.681 153.932 428.459 157.954 422.921L143.83 412.65H143.832Z" fill="#EDAC80"/>
<path d="M380.212 193.686L367.885 247.871C364.563 262.471 353.339 274.004 338.791 277.768L301.599 287.387C288.231 290.845 279.894 304.638 283.939 317.792C284.081 318.254 284.238 318.717 284.413 319.181L330.645 317.136C349.292 316.311 364.915 302.808 368.359 284.537L385.293 194.735C385.544 193.407 384.725 192.112 383.415 191.762C381.993 191.382 380.537 192.257 380.212 193.688V193.686Z" fill="#B591D8"/>
<path d="M368.357 284.535L370.791 271.636C369.99 275.283 366.32 287.61 351.891 297.784C342.636 304.308 331.596 307.858 320.278 308.52L282.929 310.708C282.9 313.048 283.212 315.428 283.939 317.79C284.081 318.253 284.238 318.715 284.413 319.179L330.645 317.134C349.292 316.309 364.914 302.806 368.359 284.535H368.357Z" fill="#8B6AAB"/>
<path d="M325.972 429.226C354.138 429.226 376.971 426.868 376.971 423.958C376.971 421.049 354.138 418.691 325.972 418.691C297.807 418.691 274.974 421.049 274.974 423.958C274.974 426.868 297.807 429.226 325.972 429.226Z" fill="#8B6AAB"/>
<path d="M322.216 328.77H324.474V414.249C324.474 414.249 325.293 421.985 307.223 424.587C307.223 424.587 302.69 424.845 303.572 422.333C303.572 422.333 310.481 421.3 315.9 419.178C319.747 417.671 322.214 413.899 322.214 409.782V328.77H322.216Z" fill="#B591D8"/>
<path d="M329.731 410.602C329.731 410.602 329.218 422.397 344.245 421.575L330.897 423.958L327.12 420.447L329.731 410.602Z" fill="#B591D8"/>
<path d="M93.3072 205.07H88.0184V440.597H93.3072V205.07Z" fill="#AE81D9"/>
<path d="M213.154 205.07H2.92834C1.31209 205.07 0 203.765 0 202.154C0 200.544 1.31047 199.237 2.92834 199.237H213.154C214.77 199.237 216.082 200.542 216.082 202.154C216.082 203.764 214.772 205.07 213.154 205.07Z" fill="#AE81D9"/>
<path d="M82.8574 179.518C81.7863 178.191 80.1911 177.431 78.4826 177.431H72.3865V175.393H54.0205V199.239H72.3865V197.761C72.4739 197.761 72.5613 197.752 72.6502 197.734C79.8724 196.193 82.7878 189.506 83.9591 184.17C84.3199 182.528 83.9187 180.832 82.8557 179.518H82.8574ZM81.5 183.633C80.5017 188.18 78.1041 193.833 72.3881 195.209V179.94H78.4843C79.4259 179.94 80.306 180.359 80.8965 181.09C81.4773 181.811 81.699 182.737 81.5016 183.633H81.5Z" fill="#AE81D9"/>
<path d="M216.081 441H36.8971C36.6739 441 36.4927 440.82 36.4927 440.597C36.4927 440.375 36.6739 440.195 36.8971 440.195H216.081C216.304 440.195 216.485 440.375 216.485 440.597C216.485 440.82 216.304 441 216.081 441Z" fill="white"/>
<path d="M272.363 426.197H246.43C246.207 426.197 246.026 426.016 246.026 425.794C246.026 425.572 246.207 425.391 246.43 425.391H272.363C272.586 425.391 272.767 425.572 272.767 425.794C272.767 426.016 272.586 426.197 272.363 426.197Z" fill="white"/>
<path d="M425.239 426.197H375.141C374.918 426.197 374.737 426.016 374.737 425.794C374.737 425.572 374.918 425.391 375.141 425.391H425.239C425.462 425.391 425.643 425.572 425.643 425.794C425.643 426.016 425.462 426.197 425.239 426.197Z" fill="white"/>
<path d="M81.5713 301.962C81.348 301.962 81.1668 301.782 81.1668 301.559V247.054C81.1668 228.784 66.2436 213.921 47.9019 213.921H14.9864C14.7631 213.921 14.5819 213.741 14.5819 213.519C14.5819 213.296 14.7631 213.116 14.9864 213.116H47.9019C66.6901 213.116 81.9757 228.34 81.9757 247.054V301.559C81.9757 301.782 81.7945 301.962 81.5713 301.962Z" fill="white"/>
<path d="M340.438 323.237H335.683C335.46 323.237 335.279 323.056 335.279 322.834C335.279 322.611 335.46 322.431 335.683 322.431H340.438C357.542 322.431 372.32 309.721 374.811 292.868L384.938 224.369C384.968 224.15 385.175 224.002 385.395 224.029C385.617 224.063 385.769 224.266 385.737 224.487L375.611 292.984C373.062 310.23 357.94 323.235 340.438 323.235V323.237Z" fill="white"/>
<path d="M118.743 193.784H205.881C205.881 196.796 203.427 199.24 200.403 199.24H124.221C121.197 199.24 118.743 196.796 118.743 193.784Z" fill="#011721"/>
<path d="M118.743 193.784L100.612 133.335L145.69 139.355L160.801 193.784H118.743Z" fill="#011721"/>
<path d="M121.075 193.784L103.692 136.089L144.116 141.11L158.9 193.784H121.075Z" fill="white"/>
<path d="M152.494 187.979H152.49L125.417 187.719C125.194 187.718 125.014 187.536 125.016 187.313C125.017 187.091 125.199 186.944 125.423 186.914L152.497 187.173C152.72 187.175 152.9 187.357 152.898 187.579C152.896 187.8 152.715 187.979 152.494 187.979Z" fill="#681919"/>
<path d="M152.494 184.576H152.49L125.417 184.324C125.194 184.323 125.014 184.14 125.016 183.918C125.017 183.696 125.199 183.493 125.423 183.518L152.497 183.77C152.72 183.771 152.9 183.954 152.898 184.176C152.896 184.397 152.715 184.576 152.494 184.576Z" fill="#681919"/>
<path d="M141.472 152.199H141.456L116.523 151.195C116.299 151.185 116.126 150.998 116.134 150.776C116.144 150.554 116.359 150.394 116.555 150.389L141.488 151.393C141.711 151.403 141.884 151.59 141.876 151.812C141.867 152.028 141.689 152.199 141.472 152.199Z" fill="#681919"/>
<path d="M141.472 147.935H141.454L115.387 146.806C115.164 146.796 114.991 146.608 115 146.385C115.01 146.163 115.183 145.995 115.423 146L141.49 147.13C141.713 147.139 141.886 147.328 141.876 147.55C141.867 147.766 141.687 147.935 141.472 147.935Z" fill="#681919"/>
<ellipse cx="134.5" cy="167" rx="9.5" ry="11" transform="rotate(-6.49869 134.5 167)" fill="#25BC70"/>
<path d="M139.119 161.807C138.316 161.251 137.282 161.518 136.822 162.4L134.202 167.426L132.179 166.026C131.376 165.469 130.342 165.736 129.882 166.618C129.422 167.5 129.703 168.676 130.507 169.232L133.99 171.643C134.793 172.199 135.827 171.933 136.287 171.051L139.743 164.422C140.203 163.54 139.922 162.364 139.118 161.808L139.119 161.807Z" fill="white"/>
<defs>
<linearGradient id="paint0_linear_5_721" x1="231.271" y1="14.0873" x2="216.203" y2="425.547" gradientUnits="userSpaceOnUse">
<stop stop-color="#E2D2FF"/>
<stop offset="1" stop-color="#FAECEC"/>
</linearGradient>
</defs>
</svg>
