<svg width="340" height="395" viewBox="0 0 340 395" fill="none" xmlns="http://www.w3.org/2000/svg">
<path d="M171.34 0V20.2512C252.675 20.2512 318.846 86.4227 318.846 167.757C318.846 249.092 252.675 315.263 171.34 315.263V335.515C263.841 335.515 339.096 260.259 339.096 167.758C339.096 75.2578 263.842 0 171.34 0Z" fill="url(#paint0_linear_5_850)"/>
<path d="M171.34 311.071C250.49 311.071 314.654 246.907 314.654 167.756C314.654 88.6059 250.49 24.4418 171.34 24.4418C92.1892 24.4418 28.0251 88.6059 28.0251 167.756C28.0251 246.907 92.1892 311.071 171.34 311.071Z" fill="url(#paint1_linear_5_850)"/>
<path d="M171.34 167.756H28.0251C28.0251 195.9 36.1435 222.144 50.158 244.288L171.341 167.756H171.34Z" fill="url(#paint2_linear_5_850)"/>
<path d="M12.7397 164.337H14.765C16.5633 80.889 83.9448 13.3036 167.315 11.1892V9.164C82.8285 11.2796 14.5392 79.7727 12.7397 164.337Z" fill="#CEB0FF"/>
<path d="M167.698 320.278C85.2473 318.337 18.7712 250.666 18.7712 167.756H8.64624C8.64624 256.248 79.6637 328.459 167.698 330.403V320.278Z" fill="url(#paint3_linear_5_850)"/>
<path d="M171.34 24.4418V168.263L272.423 269.347C298.507 243.392 314.656 207.462 314.656 167.757C314.656 88.6066 250.491 24.4418 171.341 24.4418H171.34Z" fill="url(#paint4_linear_5_850)"/>
<path d="M171.34 39.3397C171.06 39.3397 170.834 39.1128 170.834 38.8337V32.1825C170.834 31.9023 171.061 31.6765 171.34 31.6765C171.619 31.6765 171.846 31.9035 171.846 32.1825V38.8337C171.846 39.1139 171.619 39.3397 171.34 39.3397Z" fill="white"/>
<path d="M171.34 303.837C171.06 303.837 170.834 303.61 170.834 303.331V296.68C170.834 296.399 171.061 296.174 171.34 296.174C171.619 296.174 171.846 296.401 171.846 296.68V303.331C171.846 303.611 171.619 303.837 171.34 303.837Z" fill="white"/>
<path d="M306.915 168.263H300.264C299.984 168.263 299.758 168.036 299.758 167.757C299.758 167.478 299.985 167.251 300.264 167.251H306.915C307.195 167.251 307.421 167.478 307.421 167.757C307.421 168.036 307.194 168.263 306.915 168.263Z" fill="white"/>
<path d="M42.4175 168.263H35.7663C35.4861 168.263 35.2603 168.036 35.2603 167.757C35.2603 167.478 35.4872 167.251 35.7663 167.251H42.4175C42.6977 167.251 42.9235 167.478 42.9235 167.757C42.9235 168.036 42.6965 168.263 42.4175 168.263Z" fill="white"/>
<path d="M280.284 99.3255C280.117 99.3255 279.953 99.2422 279.856 99.0905C279.706 98.8542 279.777 98.5416 280.013 98.3911L285.634 94.835C285.868 94.688 286.182 94.7551 286.333 94.9925C286.483 95.2287 286.412 95.5414 286.176 95.6919L280.555 99.2479C280.471 99.3 280.377 99.3255 280.284 99.3255Z" fill="white"/>
<path d="M56.7762 240.756C56.6094 240.756 56.445 240.673 56.3477 240.521C56.1984 240.285 56.269 239.972 56.5052 239.821L62.1259 236.265C62.3598 236.118 62.6747 236.186 62.8253 236.423C62.9746 236.659 62.904 236.972 62.6678 237.122L57.0471 240.678C56.9626 240.73 56.8688 240.756 56.7762 240.756Z" fill="white"/>
<path d="M236.63 57.0933C236.542 57.0933 236.454 57.0701 236.374 57.0238C236.133 56.8814 236.052 56.5722 236.193 56.3302L239.561 50.5949C239.705 50.3517 240.017 50.2765 240.255 50.4143C240.496 50.5567 240.577 50.8659 240.436 51.1079L237.067 56.8431C236.972 57.0041 236.803 57.0933 236.631 57.0933H236.63Z" fill="white"/>
<path d="M102.685 285.167C102.597 285.167 102.509 285.144 102.429 285.098C102.188 284.956 102.107 284.646 102.248 284.404L105.617 278.669C105.76 278.426 106.073 278.351 106.31 278.488C106.551 278.631 106.632 278.94 106.491 279.182L103.122 284.917C103.027 285.078 102.858 285.167 102.686 285.167H102.685Z" fill="white"/>
<path d="M102.402 59.3188C102.235 59.3188 102.071 59.2354 101.973 59.0837L98.4175 53.4631C98.2681 53.2269 98.3387 52.9142 98.5749 52.7637C98.8088 52.6166 99.1226 52.6838 99.2743 52.9212L102.83 58.5418C102.98 58.778 102.909 59.0907 102.673 59.2412C102.588 59.2933 102.495 59.3188 102.402 59.3188Z" fill="white"/>
<path d="M243.834 282.828C243.668 282.828 243.503 282.744 243.406 282.592L239.85 276.972C239.701 276.736 239.771 276.423 240.007 276.272C240.241 276.124 240.555 276.193 240.707 276.43L244.263 282.051C244.412 282.287 244.342 282.599 244.105 282.75C244.021 282.802 243.927 282.828 243.834 282.828Z" fill="white"/>
<path d="M60.1709 102.974C60.0828 102.974 59.9948 102.951 59.9149 102.905L54.1797 99.5362C53.9388 99.3938 53.8578 99.0846 53.999 98.8426C54.1426 98.5995 54.4541 98.523 54.6926 98.662L60.4279 102.03C60.6688 102.173 60.7498 102.482 60.6085 102.724C60.5136 102.885 60.3445 102.974 60.172 102.974H60.1709Z" fill="white"/>
<path d="M288.245 236.919C288.157 236.919 288.069 236.895 287.99 236.849L282.254 233.481C282.013 233.338 281.932 233.029 282.074 232.787C282.217 232.544 282.529 232.467 282.767 232.606L288.502 235.975C288.743 236.117 288.824 236.426 288.683 236.668C288.588 236.829 288.419 236.919 288.247 236.919H288.245Z" fill="white"/>
<path d="M171.168 325.86C170.961 325.86 170.848 325.857 170.83 325.857C170.751 325.857 170.687 325.789 170.689 325.709C170.69 325.632 170.755 325.568 170.834 325.568C170.854 325.568 170.952 325.57 171.171 325.57C174.46 325.57 201.415 325.146 232.253 312.042C262.48 299.197 302.725 271.192 322.804 210.719C322.828 210.644 322.913 210.599 322.985 210.628C323.061 210.652 323.104 210.734 323.077 210.809C314.197 237.559 300.666 260.252 282.863 278.26C268.62 292.668 251.625 304.124 232.354 312.312C201.472 325.432 174.474 325.859 171.167 325.859L171.168 325.86Z" fill="white"/>
<path d="M171.341 339.604C148.21 339.604 125.772 335.074 104.647 326.139C84.2446 317.509 65.9202 305.155 50.185 289.419C34.4498 273.683 22.0958 255.359 13.4657 234.956C4.52985 213.833 0 191.393 0 168.264C0 155.574 1.393 142.92 4.14078 130.653C4.15815 130.575 4.23226 130.523 4.31332 130.543C4.3909 130.56 4.44069 130.638 4.42332 130.715C1.68017 142.961 0.289484 155.593 0.289484 168.262C0.289484 262.58 77.0225 339.314 171.341 339.314C208.529 339.314 243.891 327.584 273.6 305.393C273.665 305.348 273.755 305.361 273.804 305.422C273.851 305.487 273.837 305.578 273.775 305.626C259.291 316.444 243.3 324.853 226.245 330.618C208.608 336.579 190.136 339.604 171.342 339.604H171.341Z" fill="#A777F6"/>
<path d="M64.6591 59.4635C64.6209 59.4635 64.5827 59.4484 64.5549 59.4183C64.4993 59.3604 64.5017 59.269 64.5596 59.2134C88.6655 36.1461 115.319 25.5683 133.434 20.756C153.063 15.5418 167.174 15.7919 167.318 15.7884C167.398 15.7896 167.462 15.8567 167.46 15.9366C167.459 16.0154 167.394 16.0779 167.315 16.0779C167.301 16.0767 167.194 16.0756 166.94 16.0756C164.587 16.0756 151.323 16.3014 133.497 21.0385C115.418 25.8428 88.8172 36.402 64.7587 59.423C64.7309 59.4496 64.695 59.4635 64.6591 59.4635Z" fill="white"/>
<ellipse cx="207.096" cy="391" rx="79" ry="4" fill="#E4BDBD"/>
<path d="M146.529 313.685H269.114C276.255 313.685 282.096 307.87 282.096 300.761C282.096 293.652 276.255 287.837 269.114 287.837H146.529C139.388 287.837 133.546 293.652 133.546 300.761C133.546 307.87 139.388 313.685 146.529 313.685Z" fill="#FAA43E"/>
<path d="M148.012 313.686H208.214V287.837H148.012V313.686Z" fill="#FFCC99"/>
<path d="M211.233 313.686H215.984V287.837H211.233V313.686Z" fill="#FFCC99"/>
<path d="M219.055 313.686H221.62V287.837H219.055V313.686Z" fill="#FFCC99"/>
<g style="mix-blend-mode:multiply" opacity="0.46">
<path d="M269.113 313.685H146.529C139.388 313.685 133.546 307.87 133.546 300.761H282.096C282.096 307.87 276.254 313.685 269.113 313.685Z" fill="#FAA43E"/>
</g>
<path d="M146.529 339.419H269.114C276.284 339.419 282.096 333.632 282.096 326.495C282.096 319.357 276.284 313.57 269.114 313.57H146.529C139.359 313.57 133.546 319.357 133.546 326.495C133.546 333.632 139.359 339.419 146.529 339.419Z" fill="#FAA43E"/>
<path d="M148.012 339.419H208.214V313.57H148.012V339.419Z" fill="#FFCC99"/>
<path d="M211.233 339.419H215.984V313.57H211.233V339.419Z" fill="#FFCC99"/>
<path d="M219.054 339.419H221.62V313.57H219.054V339.419Z" fill="#FFCC99"/>
<g style="mix-blend-mode:multiply" opacity="0.46">
<path d="M269.113 339.418H146.529C139.388 339.418 133.546 333.601 133.546 326.494H282.096C282.096 333.603 276.254 339.418 269.113 339.418Z" fill="#FAA43E"/>
</g>
<path d="M269.114 365.153H146.529C139.364 365.153 133.546 359.361 133.546 352.228C133.546 345.096 139.364 339.304 146.529 339.304H269.114C276.278 339.304 282.096 345.094 282.096 352.228C282.096 359.361 276.278 365.153 269.114 365.153Z" fill="#FAA43E"/>
<path d="M148.012 365.153H208.214V339.304H148.012V365.153Z" fill="#FFCC99"/>
<path d="M211.233 365.153H215.984V339.304H211.233V365.153Z" fill="#FFCC99"/>
<path d="M219.054 365.153H221.62V339.304H219.054V365.153Z" fill="#FFCC99"/>
<g style="mix-blend-mode:multiply" opacity="0.46">
<path d="M269.113 365.152H146.529C139.388 365.152 133.546 359.335 133.546 352.228H282.096C282.096 359.337 276.254 365.152 269.113 365.152Z" fill="#FAA43E"/>
</g>
<path d="M146.529 390.885H269.113C276.254 390.885 282.096 385.07 282.096 377.961C282.096 370.852 276.254 365.037 269.113 365.037H146.529C139.388 365.037 133.546 370.852 133.546 377.961C133.546 385.07 139.388 390.885 146.529 390.885Z" fill="#FAA43E"/>
<path d="M148.012 390.887H208.214V365.039H148.012V390.887Z" fill="#FFCC99"/>
<path d="M211.233 390.887H215.984V365.039H211.233V390.887Z" fill="#FFCC99"/>
<path d="M219.054 390.887H221.62V365.039H219.054V390.887Z" fill="#FFCC99"/>
<g style="mix-blend-mode:multiply" opacity="0.46">
<path d="M269.113 390.885H146.529C139.388 390.885 133.546 385.069 133.546 377.961H282.096C282.096 385.069 276.254 390.885 269.113 390.885Z" fill="#FAA43E"/>
</g>
<path d="M146.529 287.836H269.114C276.255 287.836 282.096 282.02 282.096 274.911C282.096 267.802 276.255 261.987 269.114 261.987H146.529C139.388 261.987 133.546 267.802 133.546 274.911C133.546 282.02 139.388 287.836 146.529 287.836Z" fill="#FAA43E"/>
<path d="M148.012 287.838H208.214V261.99H148.012V287.838Z" fill="#FFCC99"/>
<path d="M211.233 287.838H215.984V261.99H211.233V287.838Z" fill="#FFCC99"/>
<path d="M219.055 287.838H221.62V261.99H219.055V287.838Z" fill="#FFCC99"/>
<g style="mix-blend-mode:multiply" opacity="0.46">
<path d="M269.113 287.835H146.529C139.388 287.835 133.546 282.02 133.546 274.911H282.096C282.096 282.02 276.254 287.835 269.113 287.835Z" fill="#FAA43E"/>
</g>
<path d="M108.757 207.326L171.178 209.874C171.861 209.903 172.44 209.423 172.472 208.803L172.503 208.186C172.535 207.567 172.005 207.043 171.322 207.014L108.901 204.466C108.217 204.437 107.639 204.917 107.607 205.536L107.575 206.153C107.544 206.773 108.073 207.297 108.757 207.326Z" fill="#423A3A"/>
<path d="M110.689 204.556L83.3571 149.937C83.0567 149.338 82.3386 149.101 81.7542 149.407L81.1698 149.712C80.5831 150.018 80.3507 150.749 80.6511 151.348L107.983 205.965C108.284 206.564 109.002 206.801 109.586 206.494L110.171 206.19C110.757 205.884 110.99 205.153 110.689 204.554V204.556Z" fill="#423A3A"/>
<path d="M103.152 227.19L33.9862 357.607L47.166 358.133C47.166 358.133 85.4444 327.244 123.807 257.639L103.152 227.19Z" fill="#011721"/>
<path d="M201.673 208.927C201.673 208.927 227.226 209.939 243.663 225.44C245.37 227.05 247.493 227.198 249.339 226.326C248.757 230.794 247.639 235.188 245.863 239.371C241.118 250.539 231.68 261.945 212.964 262.652C192.555 263.424 179.567 265.058 142.413 262.164C142.413 262.164 128.783 324.04 107.804 377.612L94.588 377.091C94.588 377.091 98.6602 227.41 105.288 218.323C109.966 211.911 112.482 209.651 122.994 209.099C122.994 209.099 160.663 208.544 201.673 208.93" fill="#05293C"/>
<path d="M95.3244 377.612L71.2167 388.922C68.6451 390.128 69.5393 393.845 72.3999 393.845H106.755C111.305 393.845 114.316 389.304 112.397 385.338L108.909 378.135L95.3269 377.615L95.3244 377.612Z" fill="#011721"/>
<path d="M34.0819 355.969L10.5769 367.278C8.06959 368.485 8.94149 372.201 11.7306 372.201H45.2263C49.6628 372.201 52.5988 367.661 50.7274 363.695L47.3265 356.491L34.0843 355.971L34.0819 355.969Z" fill="#011721"/>
<path d="M215.37 122.234L218.578 125.205L218.715 126.953L215.61 128.042L215.198 127.09L212.771 122.846L214.262 122.189C214.62 122.031 215.03 122.047 215.373 122.232L215.37 122.234Z" fill="#D89466"/>
<path d="M229.459 129.396C216.758 111.533 208.1 131.152 207.11 136.628C201.259 169.031 199.403 186.446 198.286 196.931C197.305 206.127 196.728 210.304 196.728 210.304C196.728 210.304 231.531 231.83 253.986 233.552C254.549 231.787 249.48 157.558 229.459 129.399V129.396Z" fill="white"/>
<path d="M226.546 145.73L204.139 170.919C197.003 195.839 196.728 210.302 196.728 210.302C196.728 210.302 231.531 231.829 253.986 233.55C228.303 192.542 226.546 145.728 226.546 145.728V145.73Z" fill="url(#paint5_linear_5_850)"/>
<path d="M207.11 136.628L197.677 175.64L127.495 159.436C123.946 159.03 122.527 163.368 127.152 165.339C127.152 165.339 195.567 199.6 204.299 198.265C214.3 196.735 226.546 145.73 226.546 145.73L207.11 136.628Z" fill="white"/>
<path d="M135.469 169.446C135.469 169.446 137.023 168.233 137.687 165.897C138.301 163.739 137.608 161.769 137.608 161.769L127.497 159.433C123.948 159.028 122.529 163.365 127.154 165.336C127.154 165.336 129.036 166.31 135.472 169.444L135.469 169.446Z" fill="#EDAC80"/>
<path d="M135.469 169.446C129.036 166.31 127.152 165.339 127.152 165.339C124.531 164.222 123.852 162.349 124.399 161.004L137.548 166.289C136.831 168.36 135.467 169.446 135.467 169.446H135.469Z" fill="url(#paint6_linear_5_850)"/>
<path d="M205.213 100.578C206.215 100.578 207.16 100.823 207.994 101.249C208.93 99.0434 211.114 97.4968 213.66 97.4968C217.058 97.4968 219.81 100.249 219.81 103.647C219.81 103.661 219.81 103.676 219.81 103.69C222.875 104.04 225.256 106.639 225.256 109.797C225.256 112.125 223.961 114.152 222.052 115.197C222.309 115.873 222.455 116.604 222.455 117.372C222.455 120.769 219.703 123.522 216.305 123.522C212.907 123.522 210.155 120.769 210.155 117.372C210.155 115.044 207.759 112.878 205.215 112.878C201.818 112.878 199.065 110.126 199.065 106.728C199.065 103.331 201.818 100.578 205.215 100.578H205.213Z" fill="#011721"/>
<path d="M212.346 125.685L209.92 121.441L205.865 123.213L200.127 118.53L202.537 109.018C202.537 109.018 204.872 113.614 209.397 113.835C210.121 113.871 210.665 111.456 211.493 110.965C212.588 110.318 213.48 111.262 213.368 112.895C212.891 119.901 216.199 122.424 218.492 123.491L213.37 128.039L212.346 125.68V125.685Z" fill="#EDAC80"/>
<defs>
<linearGradient id="paint0_linear_5_850" x1="255.218" y1="0" x2="255.218" y2="335.515" gradientUnits="userSpaceOnUse">
<stop stop-color="#DCCBF8"/>
<stop offset="1" stop-color="#FADEE3"/>
</linearGradient>
<linearGradient id="paint1_linear_5_850" x1="171.34" y1="24.4418" x2="171.34" y2="311.071" gradientUnits="userSpaceOnUse">
<stop stop-color="#BD97FD"/>
<stop offset="1" stop-color="#F8E7EC"/>
</linearGradient>
<linearGradient id="paint2_linear_5_850" x1="57.0962" y1="217" x2="349.096" y2="134.5" gradientUnits="userSpaceOnUse">
<stop stop-color="#E9DCFF"/>
<stop offset="1" stop-color="#F8E7EC"/>
</linearGradient>
<linearGradient id="paint3_linear_5_850" x1="88.1722" y1="167.756" x2="88.1722" y2="330.403" gradientUnits="userSpaceOnUse">
<stop stop-color="#DCCBF8"/>
<stop offset="1" stop-color="#FADEE3"/>
</linearGradient>
<linearGradient id="paint4_linear_5_850" x1="242.998" y1="24.4418" x2="242.998" y2="269.347" gradientUnits="userSpaceOnUse">
<stop stop-color="#9861F4"/>
<stop offset="1" stop-color="#F8E7EC"/>
</linearGradient>
<linearGradient id="paint5_linear_5_850" x1="227.929" y1="201.229" x2="202.988" y2="165.694" gradientUnits="userSpaceOnUse">
<stop stop-color="white"/>
<stop offset="0.13" stop-color="#FDF8F8"/>
<stop offset="0.31" stop-color="#F7E5E6"/>
<stop offset="0.53" stop-color="#EEC6C8"/>
<stop offset="0.77" stop-color="#E19C9F"/>
<stop offset="1" stop-color="#D46E72"/>
</linearGradient>
<linearGradient id="paint6_linear_5_850" x1="137.551" y1="165.224" x2="124.224" y2="165.224" gradientUnits="userSpaceOnUse">
<stop stop-color="#EDAC80"/>
<stop offset="0.27" stop-color="#E6A579"/>
<stop offset="0.65" stop-color="#D39367"/>
<stop offset="1" stop-color="#BD7E52"/>
</linearGradient>
</defs>
</svg>
