<svg width="425" height="426" viewBox="0 0 425 426" fill="none" xmlns="http://www.w3.org/2000/svg">
<path d="M280.502 425.542H143.338C59.9581 397.154 0 318.444 0 225.783C0 109.215 94.8798 14.7174 211.919 14.7174C328.959 14.7174 423.839 109.215 423.839 225.783C423.839 318.444 363.882 397.154 280.501 425.542H280.502Z" fill="url(#paint0_linear_5_991)"/>
<path d="M48.1331 91.8458C65.5818 87.2165 83.9106 84.735 102.824 84.735C219.863 84.735 314.743 179.232 314.743 295.8C314.743 344.725 298.017 389.751 269.965 425.542H143.336C59.9565 397.154 0 318.444 0 225.782C0 174.932 18.0586 128.283 48.1331 91.8458Z" fill="#EEE3FC"/>
<path d="M9.98852 138.305L9.98831 138.306C9.80033 138.766 10.0202 139.293 10.4828 139.482C10.594 139.528 10.7089 139.55 10.825 139.55C11.1817 139.55 11.517 139.337 11.6607 138.99L11.6615 138.988C40.6014 68.2584 90.732 34.8713 127.688 19.3113C167.685 2.47127 201.295 2.30567 201.717 2.30567H201.72C202.218 2.30567 202.625 1.90325 202.625 1.40284C202.625 0.902417 202.218 0.5 201.72 0.5H201.719C201.207 0.5 167.32 0.672759 127.019 17.6339C103.294 27.6177 82.0125 41.3802 63.7669 58.541C40.9583 79.9912 22.8672 106.83 9.98852 138.305Z" fill="white" stroke="white"/>
<path d="M250.314 278.496L246.279 290.587C245.819 291.969 246.32 293.5 247.501 294.303L250.715 296.496C252.041 297.4 253.81 296.433 253.833 294.788L253.973 285.077L250.314 278.496Z" fill="#EDAC80"/>
<path d="M284.721 245.296C284.721 245.296 268.339 264.271 250.479 278.871L254.247 285.485C254.247 285.485 269.304 280.508 295.036 262.182L294.384 252.489L284.721 245.296Z" fill="white"/>
<path d="M282.805 205.104L287.97 192.992C288.76 191.477 290.938 188.954 293.478 191.056C293.482 191.058 293.484 191.061 293.488 191.064C294.051 191.529 294.528 192.106 294.888 192.766L296.306 195.364C296.654 196.002 296.824 196.739 296.776 197.478C296.73 198.186 296.587 198.487 295.944 199.405L294.565 200.752C293.813 201.285 292.623 202.533 291.194 201.86L288.911 200.779L289.839 202.89L282.805 205.107V205.104Z" fill="#EDAC80"/>
<path d="M326.044 212.97C324.333 225.133 316.004 241.957 316.004 241.957C321.487 247.927 325.588 259.299 325.588 259.299C325.588 259.299 329.62 262.949 335.225 267.138L326.044 212.97Z" fill="#EAEAEA"/>
<path d="M306.651 177.5C306.635 177.387 306.627 177.329 306.627 177.329C304.473 169.18 299.047 174.466 299.047 174.466C293.254 181.262 284.777 173.213 284.777 173.213L283.678 187.338L289.701 190.225C291.096 190.893 292.714 190.934 294.142 190.337L298.536 188.498C299.957 187.903 301.643 188.003 302.86 188.943C304.14 189.931 304.594 191.462 304.276 192.875H304.281C307.037 185.189 314.256 182.649 314.256 182.649H314.257C310.772 182.034 307.132 180.715 306.648 177.501L306.651 177.5Z" fill="#EDAC80"/>
<path d="M307.268 310.822H354.446V316.153C354.446 318.997 351.983 321.306 348.95 321.306H312.764C309.731 321.306 307.268 318.997 307.268 316.153V310.823V310.822Z" fill="#78569A"/>
<path d="M354.446 310.822H329.983L330.647 313.019V321.306H348.901C351.964 321.306 354.446 318.998 354.446 316.153V310.822Z" fill="#8B6AAB"/>
<path d="M384.151 410.671V411.045C384.151 412.631 382.846 413.916 381.239 413.916H280.475C278.867 413.916 277.562 412.629 277.562 411.045V410.671C277.562 409.087 278.868 407.8 280.475 407.8H381.239C382.847 407.8 384.151 409.087 384.151 410.671Z" fill="#78569A"/>
<path d="M296.783 416.974C296.783 421.558 293.263 425.274 288.92 425.274C284.578 425.274 281.057 421.558 281.057 416.974C281.057 412.39 284.578 408.674 288.92 408.674C293.263 408.674 296.783 412.39 296.783 416.974Z" fill="#78569A"/>
<path d="M380.657 416.974C380.657 421.558 376.941 425.274 372.357 425.274C367.773 425.274 364.057 421.558 364.057 416.974C364.057 412.39 367.773 408.674 372.357 408.674C376.941 408.674 380.657 412.39 380.657 416.974Z" fill="#78569A"/>
<path d="M244.691 297.717C244.691 297.717 202.654 355.252 159.576 417.354C156.778 421.388 161.589 426.34 165.667 423.62C185.528 410.372 220.24 384.378 262.181 340.972L275.815 316.872L244.691 297.717Z" fill="#05293C"/>
<path d="M262.094 341.072L275.815 316.916L268.753 312.587L244.494 297.717L184.079 410.421C204.173 395.442 231.178 372.947 262.096 341.075L262.094 341.072Z" fill="#011721"/>
<path d="M364.931 277.255C356.035 259.449 323.958 254.033 323.958 254.033C307.396 263.574 284.159 275.025 267.039 284.318C253.925 291.437 244.363 297.841 244.363 297.841C258.464 349.501 300.908 402.394 319.761 424.072C322.154 426.823 326.625 424.461 325.709 420.931C314.77 378.729 292.285 311.194 292.285 311.194C324.39 303.004 343.499 294.294 354.863 286.962C358.879 284.371 362.271 281.057 364.929 277.255H364.931Z" fill="#05293C"/>
<path d="M292.649 311.222C324.553 303.053 343.543 294.366 354.836 287.054C358.826 284.47 364.91 286.256 367.551 282.462L364.837 277.373C361.936 271.546 356.552 267.055 350.631 263.643C350.628 263.643 297.947 285.467 266.205 305.321C273.575 348.675 292.618 390.695 310.899 413.042L313.276 412.645L321.894 405.951C310.336 364.544 292.649 311.222 292.649 311.222Z" fill="#011721"/>
<path d="M170.921 400.811C167.162 406.276 163.365 411.817 159.557 417.396C156.821 421.406 161.525 426.329 165.513 423.625C170.707 420.102 176.949 415.663 184.079 410.239C184.079 410.239 178.535 409.821 175.735 407.53C172.566 404.935 170.921 400.812 170.921 400.812V400.811Z" fill="#EDAC80"/>
<path d="M326.363 420.884C324.457 413.707 323.15 408.99 320.736 400.811C320.736 400.811 319.261 403.188 316.425 406.096C313.837 408.75 308.142 409.988 308.142 409.988C312.706 415.504 316.829 420.265 320.209 424.059C322.684 426.839 327.311 424.453 326.363 420.886V420.884Z" fill="#EDAC80"/>
<path d="M175.672 407.802L159.616 423.094C160.977 424.434 163.157 424.954 165.164 423.635C170.456 420.154 176.814 415.769 184.079 410.409C184.079 410.409 178.553 410.003 175.674 407.8L175.672 407.802Z" fill="#D39266"/>
<path d="M315.69 406.053C313.019 408.341 308.142 409.414 308.142 409.414C312.569 414.825 316.567 419.495 319.846 423.215C320.984 424.509 322.589 424.652 323.868 424.082L315.69 406.053Z" fill="#D39266"/>
<path d="M421.713 164.527C421.931 171.278 416.632 176.927 409.88 177.142C403.128 177.36 397.479 172.061 397.263 165.31C397.046 158.558 402.345 152.909 409.097 152.692C415.849 152.475 421.498 157.773 421.715 164.525L421.713 164.527Z" fill="#B591D8"/>
<path d="M412.301 152.686L405.994 176.56C407.239 176.947 408.547 177.188 409.922 177.143C416.65 176.923 421.929 171.188 421.714 164.332C421.532 158.592 417.54 153.935 412.303 152.686H412.301Z" fill="#8B6AAB"/>
<path d="M342.809 312.569H287.383C280.995 312.569 275.815 307.41 275.815 301.047C275.815 294.683 280.995 289.525 287.383 289.525H342.809C354.813 289.525 365.39 281.467 368.533 269.929L393.764 179.473C395.474 173.341 401.85 169.753 408.005 171.457C414.159 173.16 417.763 179.512 416.053 185.642L390.841 276.031C384.989 297.517 365.229 312.569 342.808 312.569H342.809Z" fill="#8B6AAB"/>
<path d="M381.221 266.295L406.453 175.596C406.866 174.111 406.955 172.616 406.787 171.173C401.063 170.28 395.449 173.734 393.859 179.446L368.608 270.211C365.463 281.788 354.877 289.874 342.863 289.874H287.392C280.999 289.874 275.815 295.05 275.815 301.435C275.815 301.898 275.899 302.337 275.951 302.785C276.519 302.869 277.085 302.959 277.676 302.959H333.148C355.587 302.959 375.362 287.855 381.22 266.296L381.221 266.295Z" fill="#B591D8"/>
<path d="M339.594 321.306H322.12V344.895H339.594V321.306Z" fill="#78569A"/>
<path d="M335.226 344.895H326.489V410.421H335.226V344.895Z" fill="#78569A"/>
<path d="M335.225 344.895H330.857V410.421H335.225V344.895Z" fill="#8B6AAB"/>
<path d="M339.594 321.306H330.857V344.895H339.594V321.306Z" fill="#8B6AAB"/>
<path d="M381.239 407.8H330.857V410.421H384.151V410.261C384.151 408.902 382.847 407.8 381.239 407.8Z" fill="#8B6AAB"/>
<path d="M396.383 255.78L395.385 259.35L371.046 261.022L372.51 255.78H396.383Z" fill="#011721"/>
<path d="M93.1811 268.116H88.8779V425.273H93.1811V268.116Z" fill="#78569A"/>
<path d="M279 268H274V425H279V268Z" fill="#78569A"/>
<path d="M295.905 266.099H40.3257C39.3004 266.099 38.4692 266.93 38.4692 267.956V268.277C38.4692 269.302 39.3004 270.133 40.3257 270.133H295.905C296.931 270.133 297.762 269.302 297.762 268.277V267.956C297.762 266.93 296.931 266.099 295.905 266.099Z" fill="#78569A"/>
<path d="M115.206 265.893H231.304C232.629 265.893 233.702 264.819 233.702 263.494C233.702 262.17 232.629 261.096 231.304 261.096H115.206C113.882 261.096 112.808 262.17 112.808 263.494C112.808 264.819 113.882 265.893 115.206 265.893Z" fill="#011721"/>
<path d="M115.306 260.983H202.566L178.609 198.453L91.0967 197.125L115.306 260.983Z" fill="#011721"/>
<path d="M117.555 260.983H200.629L177.311 200.275L93.9839 198.948L117.555 260.983Z" fill="white"/>
<g clip-path="url(#clip0_5_991)">
<path d="M424.222 425.704H-27.2128C-27.5259 425.704 -27.7786 425.508 -27.7786 425.268C-27.7786 425.028 -27.5259 424.83 -27.2128 424.83H424.222C424.533 424.83 424.788 425.026 424.788 425.266C424.788 425.507 424.533 425.702 424.222 425.702V425.704Z" fill="white"/>
</g>
<path d="M365.473 275.583C373.334 251.919 356.952 220.497 348.651 206.796C344.868 200.553 338.933 193.798 333.002 189.536C326.519 184.877 319.866 182.48 315.151 181.947C311.223 181.503 307.22 181.415 306.639 177.511C306.623 177.4 305.541 181.073 305.541 181.073C303.404 172.904 299.1 174.47 299.1 174.47C293.356 181.283 287.193 181.073 287.193 181.073V185.879L289.56 189.536C290.851 183.836 294.077 186.476 295.493 185.879L299.1 187.374C300.51 186.778 301.674 188.041 302.88 188.983C304.191 190.006 304.637 191.611 304.259 193.065C300.526 207.419 300.904 218.464 296.813 233.951C296.941 233.175 297.01 228.425 289.56 202.735L282.31 204.846C282.31 204.846 274.303 251.267 298.772 266.193C298.772 266.193 309.291 257.866 316.322 242.189C321.576 248.118 325.506 259.413 325.506 259.413C325.506 259.413 355.558 287.648 364.738 276.949C365.077 276.554 365.31 276.076 365.473 275.583Z" fill="white"/>
<path d="M298.142 309.074C297.64 309.074 297.131 308.997 296.629 308.832C294.082 307.996 292.697 305.254 293.532 302.707L305.223 267.023C309.311 254.55 320.871 246.169 333.99 246.169H402.889C405.569 246.169 407.741 248.343 407.741 251.024C407.741 253.705 405.569 255.878 402.889 255.878H333.99C325.075 255.878 317.218 261.573 314.442 270.048L302.75 305.732C302.081 307.777 300.181 309.074 298.142 309.074Z" fill="#8B6AAB"/>
<path d="M402.896 246.171H334.067C320.962 246.171 309.412 254.469 305.331 266.817L304.646 268.885C307.182 263.375 310.966 259.529 314.815 256.858C320.579 252.857 327.578 250.987 334.613 250.987H407.741C407.741 250.987 407.741 250.98 407.741 250.976C407.741 248.321 405.571 246.169 402.894 246.169L402.896 246.171Z" fill="#B591D8"/>
<ellipse cx="150.142" cy="231.279" rx="10.49" ry="12.1464" transform="rotate(-6.49869 150.142 231.279)" fill="#F04D4D"/>
<path d="M108.079 206.847H171.42" stroke="#681919"/>
<path d="M122.494 249.22H185.836" stroke="#681919"/>
<path d="M109.389 213.4H172.731" stroke="#681919"/>
<path d="M123.805 255.773H187.146" stroke="#681919"/>
<path d="M150.452 223.884L150.452 232.621" stroke="white" stroke-width="3" stroke-linecap="round" stroke-linejoin="round"/>
<circle cx="150.452" cy="236.989" r="1.74736" fill="white"/>
<path d="M283.733 158.024C285.214 157.7 286.689 157.757 288.06 158.118C288.731 154.556 291.46 151.565 295.224 150.743C300.246 149.646 305.203 152.826 306.299 157.848C306.304 157.869 306.309 157.891 306.313 157.912C310.955 157.44 315.314 160.513 316.333 165.181C317.084 168.622 315.825 172.035 313.341 174.196C313.939 175.112 314.391 176.146 314.638 177.28C315.735 182.302 312.555 187.259 307.533 188.356C302.511 189.452 297.554 186.272 296.458 181.251C295.706 177.809 291.467 175.382 287.707 176.204C282.685 177.3 277.728 174.12 276.631 169.098C275.534 164.077 278.714 159.12 283.736 158.023L283.733 158.024Z" fill="#011721"/>
<path d="M302.38 192.83L297.424 187.34L292.003 191.268L282.01 186.199L282.502 171.362C282.502 171.362 287.437 177.402 294.196 176.268C295.278 176.087 295.303 172.343 296.367 171.349C297.778 170.038 299.401 171.147 299.761 173.597C301.318 184.106 307.023 186.766 310.755 187.604L304.653 195.98L302.378 192.823L302.38 192.83Z" fill="#EDAC80"/>
<defs>
<linearGradient id="paint0_linear_5_991" x1="227.11" y1="14.0873" x2="212.042" y2="425.547" gradientUnits="userSpaceOnUse">
<stop stop-color="#E2D2FF"/>
<stop offset="1" stop-color="#FAECEC"/>
</linearGradient>
<clipPath id="clip0_5_991">
<rect width="388.404" height="0.764713" fill="white" transform="translate(36 425.235)"/>
</clipPath>
</defs>
</svg>
