<svg width="65" height="65" viewBox="0 0 65 65" fill="none" xmlns="http://www.w3.org/2000/svg">
<g clip-path="url(#clip0_99_8377)">
<path d="M26.0008 0H20.8008V2.6H26.0008V0Z" fill="black"/>
<path d="M31.1992 0H33.7992V2.6H38.9992V5.2H31.1992V0Z" fill="black"/>
<path d="M41.6008 0H44.2008V28.6H41.6008V23.4H39.0008V26H36.3998V23.4H33.8008V20.8H31.2008V13H28.6008V7.8H20.8008V5.2H26.0008V2.6H28.6008V5.2H31.2008V7.8H39.0008V10.4H33.8008V18.2H36.3998V15.6H39.0008V20.8H41.6008V13H39.0008V10.4H41.6008V0Z" fill="black"/>
<path d="M0 0V18.2H18.2V0H0ZM15.6 15.6H2.6V2.6H15.6V15.6Z" fill="black"/>
<path d="M46.8008 0V18.2H65.0008V0H46.8008ZM62.4008 15.6H49.4008V2.6H62.4008V15.6Z" fill="black"/>
<path d="M12.9992 5.19922H5.19922V12.9992H12.9992V5.19922Z" fill="black"/>
<path d="M59.8 5.19922H52V12.9992H59.8V5.19922Z" fill="black"/>
<path d="M20.8008 10.3984H26.0008V15.5984H23.4008V12.9984H20.8008V10.3984Z" fill="black"/>
<path d="M20.8008 15.6016H23.4008V18.2016H26.0008V15.6016H28.6008V20.8016H31.2008V23.4016H33.8008V26.0016H31.2008V28.6016H28.6008V23.4016H26.0008V20.8016H20.8008V15.6016Z" fill="black"/>
<path d="M18.2 20.8008H13V23.4008H18.2V20.8008Z" fill="black"/>
<path d="M54.6 20.8008H52V23.4008H54.6V20.8008Z" fill="black"/>
<path d="M57.1992 20.8008H59.7992V26.0008H64.9992V33.8008H59.7992V28.6008H57.1992V20.8008Z" fill="black"/>
<path d="M65.0004 20.8008H62.4004V23.4008H65.0004V20.8008Z" fill="black"/>
<path d="M7.79961 23.3984H2.59961V25.9984H7.79961V23.3984Z" fill="black"/>
<path d="M13.0004 23.3984H10.4004V25.9984H13.0004V23.3984Z" fill="black"/>
<path d="M2.6 26H0V28.6H2.6V26Z" fill="black"/>
<path d="M18.1996 26H15.5996V28.6H18.1996V26Z" fill="black"/>
<path d="M5.19961 28.6016H10.3996V33.8016H7.79961V36.4016H5.19961V33.8016H2.59961V31.2016H5.19961V28.6016Z" fill="black"/>
<path d="M15.6 28.6016H13V31.2016H15.6V28.6016Z" fill="black"/>
<path d="M41.6 28.6016H39V31.2016H41.6V28.6016Z" fill="black"/>
<path d="M18.1996 31.1992H15.5996V33.7992H18.1996V31.1992Z" fill="black"/>
<path d="M2.6 33.8008H0V44.2008H2.6V33.8008Z" fill="black"/>
<path d="M13.0004 33.8008H10.4004V36.4018H13.0004V33.8008Z" fill="black"/>
<path d="M10.4008 36.3984H7.80078V38.9984H10.4008V36.3984Z" fill="black"/>
<path d="M18.1996 36.3984H15.5996V38.9984H18.1996V36.3984Z" fill="black"/>
<path d="M20.8008 36.3984H23.4008V38.9984H26.0008V44.1984H23.4008V46.7984H20.8008V36.3984Z" fill="black"/>
<path d="M54.5994 36.3984H49.4004V38.9984H54.5994V36.3984Z" fill="black"/>
<path d="M65.0008 36.3984H59.8008V38.9984H65.0008V36.3984Z" fill="black"/>
<path d="M13.0004 39H10.4004V41.6H13.0004V39Z" fill="black"/>
<path d="M7.79922 41.6016H5.19922V44.2026H7.79922V41.6016Z" fill="black"/>
<path d="M18.2 41.6016H13V44.2026H18.2V41.6016Z" fill="black"/>
<path d="M28.6 44.1992H26V46.7992H28.6V44.1992Z" fill="black"/>
<path d="M64.9998 44.2008V41.6008H59.7998V39.0008H54.5998V41.6008H44.1998V39.0008H46.7998V36.4008H49.3998V33.8008H54.5998V36.4008H57.1998V28.6008H54.5998V26.0008H51.9998V28.6008H49.3998V26.0008H51.9998V23.4008H49.3998V20.8008H46.7998V28.6008H44.1998V36.4008H38.9998V31.2008H36.3988V36.4008H33.7988V28.6008H31.1988V33.8008H28.5988V28.6008H20.7988V31.2008H23.3988V36.4008H25.9998V39.0008H28.5998V36.4008H31.1998V39.0008H28.5998V44.2008H31.1998V46.8008H33.7998V41.6008H36.3998V46.8008H38.9998V44.2008H41.5998V46.8008H38.9998V49.4008H36.3988V57.2008H31.1998V59.8008H36.3988V62.4008H31.1998V65.0008H44.1998V62.4008H41.5998V59.8008H38.9998V52.0008H41.5998V54.6008H44.1998V57.2008H46.7998V54.6008H54.5998V57.2008H57.1998V54.6008H59.7998V52.0008H57.1998V46.8008H54.5998V44.2008H64.9998ZM41.5998 41.6008H38.9998V39.0008H41.5998V41.6008ZM51.9998 52.0008H44.1998V44.2008H51.9998V52.0008Z" fill="black"/>
<path d="M31.1996 46.8008H28.5996V52.0008H31.1996V46.8008Z" fill="black"/>
<path d="M49.4018 46.8008H46.8008V49.4018H49.4018V46.8008Z" fill="black"/>
<path d="M65.0004 46.8008H62.4004V52.0008H65.0004V46.8008Z" fill="black"/>
<path d="M0 46.8008V65.0008H18.2V46.8008H0ZM15.6 62.4008H2.6V49.4008H15.6V62.4008Z" fill="black"/>
<path d="M20.8008 49.3984H26.0008V54.5984H28.6008V57.1984H26.0008V59.7984H23.4008V51.9984H20.8008V49.3984Z" fill="black"/>
<path d="M12.9992 52H5.19922V59.8H12.9992V52Z" fill="black"/>
<path d="M33.7992 52H31.1992V54.6H33.7992V52Z" fill="black"/>
<path d="M65.0004 54.6016H62.4004V65.0016H65.0004V54.6016Z" fill="black"/>
<path d="M44.2006 57.1992H41.5996V59.7992H44.2006V57.1992Z" fill="black"/>
<path d="M46.8008 57.1992H52.0008V59.7992H57.2008V64.9992H54.6008V62.3992H49.4008V64.9992H46.8008V57.1992Z" fill="black"/>
<path d="M59.7992 57.1992H57.1992V59.7992H59.7992V57.1992Z" fill="black"/>
<path d="M31.1996 59.8008H28.5996V62.4018H31.1996V59.8008Z" fill="black"/>
<path d="M26.0004 62.3984H23.4004V64.9984H26.0004V62.3984Z" fill="black"/>
</g>
<defs>
<clipPath id="clip0_99_8377">
<rect width="65" height="65" fill="white"/>
</clipPath>
</defs>
</svg>
