<svg width="160" height="86" viewBox="0 0 160 86" fill="none" xmlns="http://www.w3.org/2000/svg">
<g clip-path="url(#clip0_193_26)">
<ellipse cx="71" cy="86" rx="70" ry="4" fill="#E4BDBD"/>
<path d="M54.5653 66.6582H84.0213C85.7372 66.6582 87.1408 65.2609 87.1408 63.5527C87.1408 61.8445 85.7372 60.4471 84.0213 60.4471H54.5653C52.8494 60.4471 51.4458 61.8445 51.4458 63.5527C51.4458 65.2609 52.8494 66.6582 54.5653 66.6582Z" fill="#FAA43E"/>
<path d="M54.9219 66.6583H69.3877V60.4472H54.9219V66.6583Z" fill="#FFCC99"/>
<path d="M70.1131 66.6583H71.2549V60.4472H70.1131V66.6583Z" fill="#FFCC99"/>
<path d="M71.9924 66.6583H72.609V60.4472H71.9924V66.6583Z" fill="#FFCC99"/>
<g style="mix-blend-mode:multiply" opacity="0.46">
<path d="M84.0213 66.6582H54.5653C52.8494 66.6582 51.4458 65.2609 51.4458 63.5527H87.1408C87.1408 65.2609 85.7372 66.6582 84.0213 66.6582Z" fill="#FAA43E"/>
</g>
<path d="M54.5653 72.8417H84.0212C85.7441 72.8417 87.1407 71.4513 87.1407 69.7361C87.1407 68.021 85.7441 66.6306 84.0212 66.6306H54.5653C52.8424 66.6306 51.4457 68.021 51.4457 69.7361C51.4457 71.4513 52.8424 72.8417 54.5653 72.8417Z" fill="#FAA43E"/>
<path d="M54.9219 72.8417H69.3877V66.6306H54.9219V72.8417Z" fill="#FFCC99"/>
<path d="M70.1131 72.8417H71.2549V66.6306H70.1131V72.8417Z" fill="#FFCC99"/>
<path d="M71.9924 72.8417H72.609V66.6306H71.9924V72.8417Z" fill="#FFCC99"/>
<g style="mix-blend-mode:multiply" opacity="0.46">
<path d="M84.0213 72.8416H54.5653C52.8494 72.8416 51.4458 71.4438 51.4458 69.7361H87.1408C87.1408 71.4443 85.7372 72.8416 84.0213 72.8416Z" fill="#FAA43E"/>
</g>
<path d="M84.0212 79.0251H54.5653C52.8437 79.0251 51.4457 77.6334 51.4457 75.9196C51.4457 74.2058 52.8437 72.814 54.5653 72.814H84.0212C85.7428 72.814 87.1407 74.2058 87.1407 75.9196C87.1407 77.6334 85.7428 79.0251 84.0212 79.0251Z" fill="#FAA43E"/>
<path d="M54.9219 79.0251H69.3877V72.814H54.9219V79.0251Z" fill="#FFCC99"/>
<path d="M70.1131 79.0251H71.2549V72.814H70.1131V79.0251Z" fill="#FFCC99"/>
<path d="M71.9924 79.0251H72.609V72.814H71.9924V79.0251Z" fill="#FFCC99"/>
<g style="mix-blend-mode:multiply" opacity="0.46">
<path d="M84.0213 79.0251H54.5653C52.8494 79.0251 51.4458 77.6273 51.4458 75.9196H87.1408C87.1408 77.6278 85.7372 79.0251 84.0213 79.0251Z" fill="#FAA43E"/>
</g>
<path d="M54.5653 85.2085H84.0213C85.7372 85.2085 87.1408 83.8112 87.1408 82.103C87.1408 80.3948 85.7372 78.9974 84.0213 78.9974H54.5653C52.8494 78.9974 51.4458 80.3948 51.4458 82.103C51.4458 83.8112 52.8494 85.2085 54.5653 85.2085Z" fill="#FAA43E"/>
<path d="M54.9219 85.209H69.3877V78.9979H54.9219V85.209Z" fill="#FFCC99"/>
<path d="M70.1131 85.209H71.2549V78.9979H70.1131V85.209Z" fill="#FFCC99"/>
<path d="M71.9924 85.209H72.609V78.9979H71.9924V85.209Z" fill="#FFCC99"/>
<g style="mix-blend-mode:multiply" opacity="0.46">
<path d="M84.0213 85.2085H54.5653C52.8494 85.2085 51.4458 83.8112 51.4458 82.103H87.1408C87.1408 83.8112 85.7372 85.2085 84.0213 85.2085Z" fill="#FAA43E"/>
</g>
<path d="M54.5653 60.4467H84.0213C85.7372 60.4467 87.1408 59.0494 87.1408 57.3411C87.1408 55.6329 85.7372 54.2356 84.0213 54.2356H54.5653C52.8494 54.2356 51.4458 55.6329 51.4458 57.3411C51.4458 59.0494 52.8494 60.4467 54.5653 60.4467Z" fill="#FAA43E"/>
<path d="M54.9219 60.4471H69.3877V54.236H54.9219V60.4471Z" fill="#FFCC99"/>
<path d="M70.1131 60.4471H71.2549V54.236H70.1131V60.4471Z" fill="#FFCC99"/>
<path d="M71.9924 60.4471H72.609V54.236H71.9924V60.4471Z" fill="#FFCC99"/>
<g style="mix-blend-mode:multiply" opacity="0.46">
<path d="M84.0213 60.4467H54.5653C52.8494 60.4467 51.4458 59.0493 51.4458 57.3411H87.1408C87.1408 59.0493 85.7372 60.4467 84.0213 60.4467Z" fill="#FAA43E"/>
</g>
<path d="M54.5653 54.2356H84.0213C85.7372 54.2356 87.1408 52.8383 87.1408 51.1301C87.1408 49.4219 85.7372 48.0245 84.0213 48.0245H54.5653C52.8494 48.0245 51.4458 49.4219 51.4458 51.1301C51.4458 52.8383 52.8494 54.2356 54.5653 54.2356Z" fill="#FAA43E"/>
<path d="M54.9219 54.2357H69.3877V48.0246H54.9219V54.2357Z" fill="#FFCC99"/>
<path d="M70.1131 54.2357H71.2549V48.0246H70.1131V54.2357Z" fill="#FFCC99"/>
<path d="M71.9924 54.2357H72.609V48.0246H71.9924V54.2357Z" fill="#FFCC99"/>
<g style="mix-blend-mode:multiply" opacity="0.46">
<path d="M84.0213 54.2356H54.5653C52.8494 54.2356 51.4458 52.8383 51.4458 51.1301H87.1408C87.1408 52.8383 85.7372 54.2356 84.0213 54.2356Z" fill="#FAA43E"/>
</g>
<path d="M66.1038 41.1082C64.07 41.2629 61.7842 41.0824 59.2534 40.5652C59.2331 40.561 59.2199 40.5413 59.2242 40.5211C59.2284 40.5009 59.2473 40.4878 59.2685 40.492C65.3945 41.7445 70.0816 41.0177 73.2011 38.3332C77.6155 34.5337 77.2933 28.0436 77.2895 27.9789C77.2881 27.9587 77.3037 27.9409 77.3239 27.9395H77.3244C77.3451 27.9381 77.363 27.954 77.364 27.9746C77.3677 28.0403 77.6923 34.566 73.2501 38.3895C71.4032 39.9795 69.0119 40.8873 66.1034 41.1086L66.1038 41.1082Z" fill="white"/>
<path d="M84.0212 48.0522L54.5653 48.0522C52.8437 48.0522 51.4457 46.6605 51.4457 44.9466C51.4457 43.2328 52.8437 41.8411 54.5653 41.8411H84.0212C85.7428 41.8411 87.1407 43.2328 87.1407 44.9466C87.1407 46.6609 85.7428 48.0522 84.0212 48.0522Z" fill="#FAA43E"/>
<path d="M54.9219 48.0522H69.3877V41.8411H54.9219V48.0522Z" fill="#FFCC99"/>
<path d="M70.1131 48.0522H71.2549V41.8411H70.1131V48.0522Z" fill="#FFCC99"/>
<path d="M71.9924 48.0522H72.609V41.8411H71.9924V48.0522Z" fill="#FFCC99"/>
<g style="mix-blend-mode:multiply" opacity="0.46">
<path d="M84.0213 48.0521H54.5653C52.8494 48.0521 51.4458 46.6543 51.4458 44.9466H87.1408C87.1408 46.6548 85.7372 48.0521 84.0213 48.0521Z" fill="#FAA43E"/>
</g>
<path d="M139.17 76.6299C150.566 65.2842 150.566 46.8891 139.17 35.5433C127.773 24.1975 109.295 24.1975 97.8978 35.5433C86.5009 46.8891 86.5009 65.2842 97.8978 76.6299C109.295 87.9757 127.773 87.9757 139.17 76.6299Z" fill="#FAA43E"/>
<path d="M106.985 44.451C106.985 43.5528 107.719 42.8248 108.625 42.8248H129.602C130.507 42.8248 131.241 43.5528 131.241 44.451C131.241 45.3491 130.507 46.0772 129.602 46.0772H123.209C124.148 47.2716 124.774 48.7207 124.957 50.304H129.602C130.507 50.304 131.241 51.032 131.241 51.9302C131.241 52.8283 130.507 53.5563 129.602 53.5563H124.957C124.469 57.7658 120.865 61.0344 116.491 61.0344H112.099L121.814 69.2254C122.503 69.8075 122.587 70.8318 122 71.517C121.413 72.2011 120.381 72.2844 119.69 71.7022L107.937 61.7925C106.311 60.4221 107.29 57.7832 109.424 57.7832H116.49C119.051 57.7832 121.182 55.9626 121.642 53.5563H108.624C107.718 53.5563 106.984 52.8283 106.984 51.9302C106.984 51.032 107.718 50.304 108.624 50.304H121.642C121.182 47.8978 119.051 46.0772 116.49 46.0772H108.624C107.718 46.0772 106.984 45.3491 106.984 44.451H106.985Z" fill="#FFDFC2"/>
<path d="M115.847 82.2257C110.062 81.6485 104.663 79.198 100.375 75.1499C95.2595 70.3202 92.3403 63.7981 92.1533 56.783C91.7673 42.3025 103.288 30.208 117.833 29.8237C132.384 29.4469 144.529 40.908 144.914 55.3892C145.101 62.404 142.533 69.0716 137.683 74.164C132.832 79.2564 126.28 82.1625 119.234 82.3486C118.094 82.3782 116.963 82.3369 115.847 82.2257ZM121.093 30.8427C120.031 30.7366 118.951 30.6962 117.858 30.7251C103.811 31.0964 92.6859 42.7758 93.0592 56.7586C93.2391 63.5329 96.0591 69.832 100.998 74.4956C105.938 79.1579 112.406 81.626 119.21 81.4475C126.014 81.2683 132.341 78.4607 137.026 73.544C141.71 68.6272 144.19 62.188 144.009 55.4143C143.666 42.5191 133.663 32.0967 121.093 30.8427Z" fill="#E88C46"/>
<path d="M116.05 81.8979C110.265 81.3207 104.866 78.8701 100.578 74.8221C95.4624 69.9924 92.5432 63.4703 92.3562 56.4552C91.9702 41.9747 103.491 29.8802 118.036 29.4958C132.587 29.1191 144.732 40.5802 145.117 55.0614C145.304 62.0765 142.736 68.7438 137.885 73.8362C133.035 78.9286 126.482 81.8347 119.437 82.0208C118.297 82.0503 117.166 82.009 116.05 81.8979ZM121.296 30.5148C120.234 30.4087 119.154 30.3684 118.061 30.3973C104.014 30.7686 92.8888 42.4479 93.2621 56.4308C93.442 63.2051 96.262 69.5045 101.201 74.1678C106.14 78.8301 112.609 81.2982 119.412 81.1197C126.217 80.9405 132.544 78.1329 137.228 73.2161C141.913 68.2994 144.393 61.8602 144.212 55.0865C143.869 42.1913 133.866 31.7689 121.296 30.5148Z" fill="#FFD7B3"/>
<path d="M13.1195 66.8547H42.5755C44.2914 66.8547 45.695 65.4573 45.695 63.7491C45.695 62.0409 44.2914 60.6436 42.5755 60.6436H13.1195C11.4036 60.6436 10 62.0409 10 63.7491C10 65.4573 11.4036 66.8547 13.1195 66.8547Z" fill="#FAA43E"/>
<path d="M13.4761 66.8547H27.9419V60.6436H13.4761V66.8547Z" fill="#FFCC99"/>
<path d="M28.6673 66.8547H29.8091V60.6436H28.6673V66.8547Z" fill="#FFCC99"/>
<path d="M30.5466 66.8547H31.1632V60.6436H30.5466V66.8547Z" fill="#FFCC99"/>
<g style="mix-blend-mode:multiply" opacity="0.46">
<path d="M42.5755 66.8546H13.1195C11.4036 66.8546 10 65.4573 10 63.7491H45.695C45.695 65.4573 44.2914 66.8546 42.5755 66.8546Z" fill="#FAA43E"/>
</g>
<path d="M13.1196 73.0381H42.5755C44.2984 73.0381 45.6951 71.6477 45.6951 69.9325C45.6951 68.2174 44.2984 66.827 42.5755 66.827H13.1196C11.3967 66.827 10.0001 68.2174 10.0001 69.9325C10.0001 71.6477 11.3967 73.0381 13.1196 73.0381Z" fill="#FAA43E"/>
<path d="M13.4761 73.0381H27.9419V66.827H13.4761V73.0381Z" fill="#FFCC99"/>
<path d="M28.6673 73.0381H29.8091V66.827H28.6673V73.0381Z" fill="#FFCC99"/>
<path d="M30.5466 73.0381H31.1632V66.827H30.5466V73.0381Z" fill="#FFCC99"/>
<g style="mix-blend-mode:multiply" opacity="0.46">
<path d="M42.5755 73.038H13.1195C11.4036 73.038 10 71.6402 10 69.9325H45.695C45.695 71.6407 44.2914 73.038 42.5755 73.038Z" fill="#FAA43E"/>
</g>
<path d="M42.5755 79.2216H13.1196C11.398 79.2216 10.0001 77.8299 10.0001 76.116C10.0001 74.4022 11.398 73.0105 13.1196 73.0105H42.5755C44.2971 73.0105 45.6951 74.4017 45.6951 76.116C45.6951 77.8299 44.2971 79.2216 42.5755 79.2216Z" fill="#FAA43E"/>
<path d="M13.4761 79.2216H27.9419V73.0105H13.4761V79.2216Z" fill="#FFCC99"/>
<path d="M28.6673 79.2216H29.8091V73.0105H28.6673V79.2216Z" fill="#FFCC99"/>
<path d="M30.5466 79.2216H31.1632V73.0105H30.5466V79.2216Z" fill="#FFCC99"/>
<g style="mix-blend-mode:multiply" opacity="0.46">
<path d="M42.5755 79.2215H13.1195C11.4036 79.2215 10 77.8237 10 76.116H45.695C45.695 77.8242 44.2914 79.2215 42.5755 79.2215Z" fill="#FAA43E"/>
</g>
<path d="M13.1195 85.405H42.5755C44.2914 85.405 45.695 84.0076 45.695 82.2994C45.695 80.5912 44.2914 79.1938 42.5755 79.1938H13.1195C11.4036 79.1938 10 80.5912 10 82.2994C10 84.0076 11.4036 85.405 13.1195 85.405Z" fill="#FAA43E"/>
<path d="M13.4761 85.4054H27.9419V79.1943H13.4761V85.4054Z" fill="#FFCC99"/>
<path d="M28.6673 85.4054H29.8091V79.1943H28.6673V85.4054Z" fill="#FFCC99"/>
<path d="M30.5466 85.4054H31.1632V79.1943H30.5466V85.4054Z" fill="#FFCC99"/>
<g style="mix-blend-mode:multiply" opacity="0.46">
<path d="M42.5755 85.4049H13.1195C11.4036 85.4049 10 84.0076 10 82.2994H45.695C45.695 84.0076 44.2914 85.4049 42.5755 85.4049Z" fill="#FAA43E"/>
</g>
<path d="M13.1195 60.6432H42.5755C44.2914 60.6432 45.695 59.2459 45.695 57.5377C45.695 55.8295 44.2914 54.4321 42.5755 54.4321H13.1195C11.4036 54.4321 10 55.8295 10 57.5377C10 59.2459 11.4036 60.6432 13.1195 60.6432Z" fill="#FAA43E"/>
<path d="M13.4761 60.6437H27.9419V54.4326H13.4761V60.6437Z" fill="#FFCC99"/>
<path d="M28.6673 60.6437H29.8091V54.4326H28.6673V60.6437Z" fill="#FFCC99"/>
<path d="M30.5466 60.6437H31.1632V54.4326H30.5466V60.6437Z" fill="#FFCC99"/>
<g style="mix-blend-mode:multiply" opacity="0.46">
<path d="M42.5755 60.6432H13.1195C11.4036 60.6432 10 59.2459 10 57.5377H45.695C45.695 59.2459 44.2914 60.6432 42.5755 60.6432Z" fill="#FAA43E"/>
</g>
</g>
<defs>
<clipPath id="clip0_193_26">
<rect width="159.69" height="85.7766" fill="white"/>
</clipPath>
</defs>
</svg>
