<svg width="312" height="286" viewBox="0 0 312 286" fill="none" xmlns="http://www.w3.org/2000/svg">
<path d="M288.567 108.548L302.347 27.1203L220.897 40.5962L234.222 53.9769L141.5 155L162.5 158L195.279 172.88L275.241 95.1659L288.567 108.548Z" fill="#ECD9F9"/>
<path d="M253.62 169.67L260.587 128.497L219.403 135.312L226.141 142.077L125.499 242.659L166.595 243.129L246.882 162.904L253.62 169.67Z" fill="url(#paint0_linear_126_223)"/>
<path d="M195.936 98.1744L202.903 57.0016L161.719 63.8158L168.457 70.5816L55.1331 183.837V225.368L189.198 91.4086L195.936 98.1744Z" fill="url(#paint1_linear_126_223)"/>
<path d="M153.935 228.19L167.239 149.574L88.6008 162.585L101.467 175.504L0 263.187L39.6945 275.506L60.6824 286L141.07 215.271L153.935 228.19Z" fill="url(#paint2_linear_126_223)"/>
<path d="M150.209 90.298C149.744 90.298 149.306 90.412 148.918 90.6095C148.485 89.5861 147.471 88.8687 146.29 88.8687C144.714 88.8687 143.437 90.1463 143.437 91.7228C143.437 91.73 143.438 91.7363 143.438 91.7426C142.017 91.9051 140.912 93.1108 140.912 94.5769C140.912 95.6578 141.512 96.5978 142.398 97.0826C142.279 97.3969 142.211 97.7362 142.211 98.0917C142.211 99.6683 143.488 100.946 145.064 100.946C146.64 100.946 147.917 99.6683 147.917 98.0917C147.917 97.0108 149.029 96.0071 150.21 96.0071C151.786 96.0071 153.063 94.7295 153.063 93.153C153.063 91.5765 151.786 90.2989 150.21 90.2989L150.209 90.298Z" fill="#011721"/>
<path d="M147.437 100.997L184.603 78.3557C185.901 77.5647 187.302 79.2122 186.311 80.3649C179.52 88.2646 166.585 101.944 152.615 109.577L141.196 108.39L147.436 100.997H147.437Z" fill="#E2E2E2"/>
<path d="M147.436 100.997L148.011 99.9872L151.003 100.16L153.062 97.3234L150.536 94.5771C150.536 94.5771 148.779 96.8566 147.215 96.8566L146.199 95.6481C146.199 95.6481 144.689 96.6914 145.952 98.5588C145.952 98.5588 146.243 99.8606 144.835 100.226L144.964 101.608L147.436 100.997Z" fill="#EDAC80"/>
<path d="M171.098 149.965C171.098 149.965 193.93 167.525 207.28 177.787C208.662 178.849 207.634 181.043 205.932 180.666C197.515 178.793 181.074 173.598 157.866 159.272L171.098 149.965Z" fill="#05293C"/>
<path d="M199.365 178.927C184.175 173.815 171.376 151.038 171.375 151.038L157.866 159.273C176.061 170.504 190.094 176.122 199.365 178.927Z" fill="#011721"/>
<path d="M145.624 138.841C145.624 138.841 116.29 145.503 115.254 138.892C115.172 139.299 115.095 139.741 115.029 140.211C113.597 150.291 121.521 159.272 131.698 159.272H157.866C157.866 159.272 161.258 179.215 170.096 202.59C170.932 204.798 174.198 204.25 174.267 201.889C174.67 187.859 174.694 163.156 171.098 149.965L145.624 138.841Z" fill="#05293C"/>
<path d="M157.535 128.901L151.849 106.561C150.405 100.254 142.595 98.0039 138.011 102.568C132.678 107.88 125.548 117.43 116.776 134.562C116.076 135.93 115.556 137.386 115.255 138.892C116.291 145.503 145.625 138.841 145.625 138.841L148.444 128.735L150.025 134.502L173.75 147.629C174.812 148.098 175.705 146.707 174.836 145.937C169.277 141.008 160.284 131.867 157.536 128.901H157.535Z" fill="white"/>
<path d="M145.624 138.841L148.443 128.735L145.22 117.452C145.22 117.452 137.042 138.748 115.254 138.892C116.29 145.503 145.624 138.841 145.624 138.841Z" fill="#E2E2E2"/>
<path d="M167.499 195.388C163.636 183.095 163.465 153.7 163.465 153.7L145.22 152.712C123.905 152.488 115.16 143.772 114.893 143.502C115.382 152.165 122.645 159.273 131.697 159.273H157.866C157.866 159.273 160.586 175.263 167.499 195.388V195.388Z" fill="#011721"/>
<path d="M151.848 106.561C151.848 106.561 163.724 114.06 179.851 107.511L183.736 108.68L181.869 112.632C181.869 112.632 161.528 116.861 152.332 108.461L151.848 106.561Z" fill="#011721"/>
<path d="M183.686 155.816L149.778 140.684C149.391 140.512 149.218 140.058 149.391 139.671C149.563 139.284 150.016 139.111 150.403 139.283L184.31 154.416C184.697 154.588 184.87 155.042 184.698 155.429C184.526 155.815 184.073 155.989 183.686 155.816Z" fill="#011721"/>
<path d="M184.182 154.626L158.696 143.253L174.087 127.751L199.573 139.124L184.182 154.626Z" fill="#011721"/>
<path d="M181.479 85.7677C183.311 83.7962 184.938 81.9611 186.312 80.3648C187.302 79.212 185.901 77.5655 184.604 78.3555L180.117 81.0884L181.48 85.7677H181.479Z" fill="#EDAC80"/>
<path d="M207.28 177.787C205.633 176.521 203.841 175.143 201.965 173.701L197.883 178.466C201.079 179.482 203.772 180.184 205.932 180.666C207.634 181.044 208.662 178.85 207.28 177.787Z" fill="#EDAC80"/>
<path d="M163.897 184.541C163.853 184.541 163.811 184.515 163.793 184.471C161.468 178.745 157.793 159.487 157.756 159.294C157.744 159.233 157.784 159.173 157.845 159.162C157.905 159.154 157.964 159.191 157.976 159.252C158.012 159.446 161.683 178.682 163.999 184.388C164.023 184.444 163.995 184.511 163.938 184.534C163.924 184.54 163.91 184.542 163.895 184.542L163.897 184.541Z" fill="white"/>
<path d="M259.917 57.8315L269.64 67.5267C270.227 68.112 271.176 68.107 271.76 67.5154L259.911 55.7008C259.328 56.2923 259.33 57.2463 259.917 57.8316L259.917 57.8315Z" fill="url(#paint3_linear_126_223)"/>
<path d="M307.147 16.2851C309.363 16.0556 310.759 16.0834 310.759 16.0834C310.759 16.0834 310.798 17.4866 310.588 19.7163C309.75 28.598 306.152 36.4109 300.377 42.2637L275.218 67.7592C274.338 68.6513 272.907 68.6586 272.022 67.7765L265.835 61.6083L259.649 55.4401C258.764 54.558 258.76 53.1197 259.64 52.2276L284.799 26.7321C290.575 20.8793 298.318 17.1993 307.147 16.2851Z" fill="url(#paint4_linear_126_223)"/>
<path d="M310.588 19.7162C309.75 28.598 306.153 36.4109 300.377 42.2637L275.218 67.7592C274.338 68.6512 272.907 68.6586 272.022 67.7765L265.836 61.6083L310.76 16.0834C310.76 16.0834 310.799 17.4866 310.588 19.7162Z" fill="url(#paint5_linear_126_223)"/>
<path d="M284.948 26.5787L300.527 42.11L300.664 41.9704L285.086 26.4391L284.948 26.5787Z" fill="#CCD1D9"/>
<path d="M296.085 39.5838C299.007 37.7577 299.909 33.8999 298.1 30.9672C296.291 28.0345 292.455 27.1374 289.533 28.9635C286.611 30.7897 285.709 34.6475 287.518 37.5802C289.327 40.5129 293.163 41.4099 296.085 39.5838Z" fill="#CCD1D9"/>
<path d="M295.613 38.8195C298.115 37.2562 298.887 33.9537 297.338 31.4432C295.79 28.9326 292.506 28.1647 290.005 29.7279C287.503 31.2912 286.731 34.5937 288.28 37.1043C289.828 39.6148 293.112 40.3828 295.613 38.8195Z" fill="#2E276F"/>
<path d="M272.442 54.913C273.037 55.5061 273.999 55.5011 274.591 54.9012L281.595 47.8032C282.187 47.2038 282.184 46.2367 281.589 45.6434C280.994 45.0503 280.032 45.0553 279.44 45.6552L272.436 52.7532C271.844 53.3525 271.847 54.3197 272.442 54.913Z" fill="#CCD1D9"/>
<path d="M271.638 64.3855L273.599 66.3405L275.549 64.3642L273.588 62.4093L271.638 64.3855Z" fill="white"/>
<path d="M271.199 63.9481L271.417 64.165L273.367 62.1888L273.149 61.9719L271.199 63.9481Z" fill="white"/>
<path d="M261.354 54.1278L265.193 57.9562C265.353 58.1159 265.612 58.1144 265.771 57.953C265.931 57.7915 265.93 57.5312 265.77 57.3714L261.93 53.5431C261.77 53.3834 261.511 53.3848 261.352 53.5463C261.193 53.7078 261.193 53.9681 261.354 54.1278Z" fill="white"/>
<path d="M262.164 53.307L266.003 57.1353C266.164 57.295 266.423 57.2936 266.582 57.1321C266.741 56.9706 266.74 56.7103 266.58 56.5506L262.741 52.7222C262.581 52.5625 262.322 52.564 262.162 52.7254C262.003 52.8869 262.004 53.1473 262.164 53.307Z" fill="white"/>
<path d="M273.327 43.5911L264.3 39.8773C262.662 39.2034 260.784 39.5007 259.427 40.6484L250.368 48.3101L252.631 49.9041L265.299 48.7069C265.734 48.6655 266.165 48.8204 266.475 49.1296L267.173 49.8259L273.326 43.591L273.327 43.5911Z" fill="url(#paint6_linear_126_223)"/>
<path d="M283.698 53.9323L287.466 62.976C288.15 64.6173 287.87 66.5065 286.738 67.8799L279.19 77.0475L277.586 74.7857L278.674 62.0422C278.712 61.6041 278.555 61.1723 278.244 60.863L277.546 60.1668L283.698 53.9323Z" fill="url(#paint7_linear_126_223)"/>
<path d="M310.588 19.7163C310.329 22.4615 309.805 25.1035 309.036 27.618L299.299 17.9093C301.794 17.1157 304.418 16.5677 307.147 16.2852C309.363 16.0556 310.76 16.0835 310.76 16.0835C310.76 16.0835 310.798 17.4867 310.588 19.7163Z" fill="#F09864"/>
<path d="M310.588 19.7163C310.329 22.4614 309.805 25.1035 309.036 27.618L304.167 22.7636L310.759 16.0835C310.759 16.0835 310.798 17.4867 310.588 19.7163Z" fill="#F0884A"/>
<path d="M290.94 55.1683C290.928 55.1655 290.916 55.1597 290.906 55.1502C290.877 55.1223 290.877 55.0758 290.904 55.0468L298.203 47.3311C298.23 47.3013 298.275 47.2998 298.306 47.3287C298.336 47.3567 298.336 47.4031 298.308 47.4322L291.009 55.1478C290.992 55.1677 290.965 55.1747 290.94 55.169L290.94 55.1683Z" fill="url(#paint8_linear_126_223)"/>
<path d="M241.213 72.9972C241.213 72.9972 251.654 64.4591 256.353 61.8718L264.184 69.8924C264.184 69.8924 257.397 82.8146 256.353 83.6051C255.309 84.3956 256.353 75.8432 256.353 75.8432C256.353 75.8432 240.691 86.4511 239.907 85.4162C239.124 84.3813 252.437 71.4448 252.437 71.4448C248.348 73.0834 241.213 72.9972 241.213 72.9972Z" fill="url(#paint9_linear_126_223)"/>
<path d="M205.515 113.092L205.515 113.092L205.514 113.093C205.391 113.217 205.388 113.418 205.515 113.545C205.556 113.586 205.607 113.615 205.663 113.629C205.767 113.655 205.885 113.628 205.967 113.545C205.967 113.544 205.968 113.544 205.968 113.544L234.594 85.1332L234.595 85.1324C234.718 85.0085 234.721 84.8075 234.594 84.6807C234.473 84.5591 234.269 84.5473 234.14 84.6797C234.14 84.6801 234.139 84.6806 234.139 84.681L205.515 113.092Z" fill="url(#paint10_linear_126_223)" stroke="url(#paint11_linear_126_223)" stroke-width="0.3"/>
<mask id="path-38-outside-1_126_223" maskUnits="userSpaceOnUse" x="231.881" y="82.9127" width="18.9283" height="24.7435" fill="black">
<rect fill="white" x="231.881" y="82.9127" width="18.9283" height="24.7435"/>
<path d="M233.074 104.019C233.057 104.014 233.041 104.005 233.028 103.992C232.988 103.953 232.989 103.89 233.028 103.851L249.848 87.1561C249.887 87.1156 249.95 87.1174 249.99 87.157C250.029 87.1966 250.029 87.2591 249.99 87.298L233.169 103.992C233.144 104.018 233.107 104.027 233.074 104.019Z"/>
</mask>
<path d="M233.074 104.019C233.057 104.014 233.041 104.005 233.028 103.992C232.988 103.953 232.989 103.89 233.028 103.851L249.848 87.1561C249.887 87.1156 249.95 87.1174 249.99 87.157C250.029 87.1966 250.029 87.2591 249.99 87.298L233.169 103.992C233.144 104.018 233.107 104.027 233.074 104.019Z" fill="url(#paint12_linear_126_223)"/>
<path d="M233.028 103.992L232.816 104.204L233.028 103.992ZM233.028 103.851L232.816 103.638L232.815 103.64L233.028 103.851ZM249.848 87.1561L250.059 87.369L250.064 87.3644L249.848 87.1561ZM249.99 87.298L250.201 87.5109L250.203 87.5094L249.99 87.298ZM233.169 103.992L232.958 103.779L232.956 103.781L233.169 103.992ZM233.147 103.728C233.183 103.737 233.215 103.755 233.24 103.78L232.816 104.204C232.867 104.255 232.931 104.292 233.001 104.31L233.147 103.728ZM233.24 103.78C233.319 103.859 233.316 103.986 233.24 104.063L232.815 103.64C232.661 103.794 232.657 104.046 232.816 104.204L233.24 103.78ZM233.239 104.064L250.059 87.369L249.637 86.9432L232.816 103.638L233.239 104.064ZM250.064 87.3644C249.977 87.4538 249.847 87.4389 249.778 87.3693L250.202 86.9448C250.053 86.7959 249.796 86.7774 249.632 86.9477L250.064 87.3644ZM249.778 87.3693C249.698 87.2901 249.701 87.163 249.777 87.0865L250.203 87.5094C250.356 87.3551 250.36 87.1031 250.202 86.9448L249.778 87.3693ZM249.779 87.085L232.958 103.779L233.38 104.205L250.201 87.5109L249.779 87.085ZM232.956 103.781C233.008 103.728 233.082 103.711 233.147 103.728L233.001 104.31C233.131 104.342 233.279 104.308 233.382 104.203L232.956 103.781Z" fill="url(#paint13_linear_126_223)" mask="url(#path-38-outside-1_126_223)"/>
<path d="M174.617 203.342C174.669 201.316 174.714 199.089 174.747 196.719L167.447 194.748C168.366 197.796 169.361 200.935 170.438 204.131C171.275 206.613 174.548 205.997 174.617 203.343V203.342Z" fill="#EDAC80"/>
<defs>
<linearGradient id="paint0_linear_126_223" x1="235.5" y1="142.5" x2="162.5" y2="210" gradientUnits="userSpaceOnUse">
<stop stop-color="#8E61D6"/>
<stop offset="1" stop-color="#FAEAEE"/>
</linearGradient>
<linearGradient id="paint1_linear_126_223" x1="202.793" y1="33.4368" x2="54.9652" y2="182.177" gradientUnits="userSpaceOnUse">
<stop stop-color="#C599E6"/>
<stop offset="1" stop-color="#F3F6FC" stop-opacity="0"/>
</linearGradient>
<linearGradient id="paint2_linear_126_223" x1="193.454" y1="106.234" x2="43.801" y2="268.662" gradientUnits="userSpaceOnUse">
<stop offset="0.005" stop-color="#814EC4"/>
<stop offset="1" stop-color="#F3F5FB" stop-opacity="0"/>
</linearGradient>
<linearGradient id="paint3_linear_126_223" x1="259.821" y1="56.3154" x2="264.938" y2="70.9553" gradientUnits="userSpaceOnUse">
<stop stop-color="#FBBF00"/>
<stop offset="1" stop-color="#FF421D"/>
</linearGradient>
<linearGradient id="paint4_linear_126_223" x1="296.69" y1="20.6747" x2="302.191" y2="51.041" gradientUnits="userSpaceOnUse">
<stop stop-color="#21B6F3"/>
<stop offset="0.6" stop-color="#6329A5"/>
<stop offset="1" stop-color="#2E276F"/>
</linearGradient>
<linearGradient id="paint5_linear_126_223" x1="299.332" y1="21.2925" x2="307.103" y2="49.8425" gradientUnits="userSpaceOnUse">
<stop stop-color="#21B6F3"/>
<stop offset="0.6" stop-color="#6329A5"/>
<stop offset="1" stop-color="#2E276F"/>
</linearGradient>
<linearGradient id="paint6_linear_126_223" x1="258.911" y1="40.0029" x2="261.828" y2="52.7633" gradientUnits="userSpaceOnUse">
<stop stop-color="#EFAA80"/>
<stop offset="0.485" stop-color="#F1894B"/>
<stop offset="1" stop-color="#D55E17"/>
</linearGradient>
<linearGradient id="paint7_linear_126_223" x1="281.937" y1="56.2516" x2="291.92" y2="65.532" gradientUnits="userSpaceOnUse">
<stop stop-color="#EFAA80"/>
<stop offset="0.485" stop-color="#F1894B"/>
<stop offset="1" stop-color="#D55E17"/>
</linearGradient>
<linearGradient id="paint8_linear_126_223" x1="293.962" y1="56.0958" x2="301.341" y2="49.0853" gradientUnits="userSpaceOnUse">
<stop stop-color="#FFFF00" stop-opacity="0"/>
<stop offset="1" stop-color="#FF501D"/>
</linearGradient>
<linearGradient id="paint9_linear_126_223" x1="240.336" y1="63.4068" x2="263.068" y2="87.6809" gradientUnits="userSpaceOnUse">
<stop stop-color="#FBBF00"/>
<stop offset="1" stop-color="#FF421D"/>
</linearGradient>
<linearGradient id="paint10_linear_126_223" x1="217.412" y1="117.246" x2="245.304" y2="90.8325" gradientUnits="userSpaceOnUse">
<stop stop-color="#FFFF00" stop-opacity="0"/>
<stop offset="1" stop-color="#FF501D"/>
</linearGradient>
<linearGradient id="paint11_linear_126_223" x1="207.5" y1="111.5" x2="231.5" y2="88" gradientUnits="userSpaceOnUse">
<stop stop-color="#FFFF00" stop-opacity="0"/>
<stop offset="1" stop-color="#FF501D"/>
</linearGradient>
<linearGradient id="paint12_linear_126_223" x1="239.956" y1="106.229" x2="256.345" y2="90.7093" gradientUnits="userSpaceOnUse">
<stop stop-color="#FFFF00" stop-opacity="0"/>
<stop offset="1" stop-color="#FF501D"/>
</linearGradient>
<linearGradient id="paint13_linear_126_223" x1="234.132" y1="102.853" x2="248.234" y2="89.045" gradientUnits="userSpaceOnUse">
<stop stop-color="#FFFF00" stop-opacity="0"/>
<stop offset="1" stop-color="#FF501D"/>
</linearGradient>
</defs>
</svg>
