<svg width="257" height="45" viewBox="0 0 257 45" fill="none" xmlns="http://www.w3.org/2000/svg">
<path fill-rule="evenodd" clip-rule="evenodd" d="M23.1855 0C36.0128 0 46.3711 10.052 46.3711 22.5C46.3711 34.9481 36.0128 45 23.1855 45C10.3582 45 0 34.9481 0 22.5C0 10.052 10.4184 0 23.1855 0Z" fill="#F26F21"/>
<path fill-rule="evenodd" clip-rule="evenodd" d="M20.0536 23.4352L21.0171 21.2728H18.548L20.0536 23.4352ZM19.6922 18.9936L21.0171 21.2728L21.9807 18.9936H19.6922ZM19.6922 18.9936L21.0773 16.2469H18.0662L19.6922 18.9936ZM12.1042 16.3053L15.0551 21.9157L18.0662 16.3053H12.1042ZM15.0551 21.9157L11.9236 27.7599H18.1265L16.6209 24.9547L15.0551 21.9157ZM16.6209 18.9936L18.1265 22.1495L18.548 21.2728L19.6922 18.9936H16.6209ZM18.0662 22.1495L16.6811 24.9547H19.3911L18.0662 22.1495ZM20.0536 23.4352L19.3911 24.9547H21.1376L20.0536 23.4352ZM18.1867 27.7599H20.716L19.3911 24.9547L18.1867 27.7599ZM20.9569 32.9612L18.1867 27.7014L15.8982 32.9612H20.9569ZM23.1851 27.7599L22.7636 27.117L21.1978 24.8962H25.2929L23.1851 27.7599ZM15.4767 11.9806L19.6922 6.66245H12.2849L15.4767 11.9806ZM20.3547 11.9806H15.4767L18.0662 16.2469L20.3547 11.9806ZM12.1042 16.3053L15.4767 12.0391H9.8158L12.1042 16.3053ZM12.1042 16.3053H3.31181L7.58758 21.9741L12.1042 16.3053ZM11.9236 27.7599L9.15336 33.0196H15.8982L11.9236 27.7599ZM3.07092 27.7599H11.9838L7.58758 21.9741L3.07092 27.7599ZM13.9711 37.2274H19.0298L15.838 32.9612L13.9711 37.2274ZM26.3167 23.4352L25.3531 21.2728H27.8222L26.3167 23.4352ZM26.7382 18.9936L25.4133 21.2728L24.4498 18.9936H26.7382ZM26.7382 18.9936L25.3531 16.2469H28.3642L26.7382 18.9936ZM34.266 16.3053L31.3151 21.9157L28.304 16.3053H34.266ZM31.3151 21.9157L34.4467 27.7599H28.2438L29.7493 24.9547L31.3151 21.9157ZM29.8095 18.9936L28.304 22.1495L27.8824 21.2728L26.7382 18.9936H29.8095ZM28.304 22.1495L29.6891 24.9547H26.9791L28.304 22.1495ZM26.3167 23.4352L26.9791 24.9547H25.2327L26.3167 23.4352ZM28.2438 27.7599H25.6542L26.9791 24.9547L28.2438 27.7599ZM25.4736 32.9612L28.2438 27.7014L30.5322 32.9612H25.4736ZM23.1851 18.9936H24.3896L23.1851 16.2469L21.9807 18.9936H23.1851ZM23.1851 24.9547L23.4862 24.4287L25.3531 21.2728H20.9569L23.1851 24.9547ZM23.1851 32.9612L25.6542 27.7599H20.716L22.6431 31.7923L23.1851 32.9612ZM30.8935 11.9806L26.678 6.66245H34.0853L30.8935 11.9806ZM26.0758 11.9806H30.9538L28.3642 16.2469L26.0758 11.9806ZM34.266 16.3053L30.8935 12.0391H36.5544L34.266 16.3053ZM34.266 16.3053H43.0584L38.7826 21.9741L34.266 16.3053ZM34.4467 27.7599L37.2169 33.0196H30.5322L34.4467 27.7599ZM43.3595 27.7599H34.4467L38.7826 21.9741L43.3595 27.7599ZM32.3991 37.2274H27.3404L30.5322 32.9612L32.3991 37.2274ZM23.1851 6.66245H26.678L23.1851 2.22089L19.6922 6.66245H23.1851ZM23.1851 11.9806H26.0758L23.2453 6.66245L20.4149 11.9806H23.1851ZM23.1851 16.3053H25.3531L24.0282 13.7339L23.1851 12.0391L21.0171 16.3053H23.1851ZM23.1851 37.2274L23.7873 36.117L25.4736 32.9612H20.9569L23.1851 37.2274ZM23.1851 42.7209L27.3404 37.2274H19.09L23.1851 42.7209Z" fill="white"/>
<path fill-rule="evenodd" clip-rule="evenodd" d="M112.311 7.65594H107.253C105.687 7.65594 104.422 8.88322 104.422 10.4027V37.3443H119.116C120.622 37.3443 121.887 36.117 121.887 34.656V29.6884H112.311V7.65594ZM61.4236 7.65594H56.4252C54.8594 7.65594 53.5345 8.94166 53.5345 10.4611V37.3443H58.533C60.0988 37.3443 61.4236 36.0585 61.4236 34.5391V7.65594ZM83.1638 7.65594H100.026V12.6235C100.026 14.0845 98.7614 15.3118 97.2558 15.3118H88.2225V19.1105H98.0387V24.078C98.0387 25.5391 96.774 26.7663 95.2685 26.7663H88.2225V34.656C88.2225 36.1754 86.9578 37.4027 85.3921 37.4027H80.3334V10.4027C80.3334 8.88322 81.5981 7.65594 83.1638 7.65594ZM74.8532 7.65594H69.8547C68.289 7.65594 66.9641 8.94166 66.9641 10.4611V37.3443H71.9625C73.5283 37.3443 74.8532 36.0585 74.8532 34.5391V7.65594Z" fill="#232155"/>
<path d="M146.281 33.4748L146.702 37.0398C144.956 37.5073 142.908 37.7411 140.62 37.7411C139.355 37.7411 138.211 37.6242 137.187 37.4489C136.163 37.2735 135.381 36.9229 134.658 36.5138C133.935 36.1047 133.333 35.5787 132.851 34.9943C132.369 34.4099 132.008 33.6502 131.707 32.7735C131.406 31.8969 131.225 30.9034 131.105 29.8515C130.984 28.7995 130.924 27.5722 130.924 26.2281C130.924 25.1761 130.984 24.2411 131.045 23.4229C131.105 22.6047 131.225 21.7865 131.346 21.0268C131.526 20.267 131.707 19.6242 131.948 19.0398C132.189 18.4553 132.49 17.9294 132.851 17.4618C133.213 16.9943 133.634 16.5852 134.116 16.2346C134.598 15.8839 135.14 15.5917 135.802 15.3579C136.465 15.1242 137.127 14.9489 137.91 14.832C138.693 14.7151 139.596 14.6566 140.56 14.6566C142.848 14.6566 144.896 14.8904 146.642 15.3579L146.221 18.9229C144.595 18.6891 142.969 18.5138 141.403 18.5138C140.861 18.5138 140.319 18.5722 139.897 18.5722C139.415 18.6307 139.054 18.7476 138.693 18.8644C138.331 18.9813 138.03 19.1566 137.729 19.2735C137.428 19.4489 137.187 19.6242 137.007 19.9164C136.826 20.2086 136.645 20.4424 136.465 20.6761C136.344 20.9099 136.224 21.2021 136.103 21.5528C136.043 21.9034 135.923 22.254 135.862 22.5463C135.802 22.8385 135.742 23.1891 135.742 23.6566C135.742 24.1242 135.682 24.5333 135.682 24.8255V27.9813C135.682 28.3904 135.742 28.9748 135.802 29.6177C135.862 30.2605 135.983 30.7281 136.103 31.0787C136.224 31.4294 136.465 31.78 136.705 32.1891C137.007 32.5982 137.308 32.8904 137.729 33.1242C138.151 33.2995 138.633 33.4748 139.235 33.6502C139.837 33.767 140.56 33.8839 141.343 33.8839C143.089 33.8255 144.655 33.7086 146.281 33.4748Z" fill="#232155"/>
<path d="M154.288 37.4595H149.41L156.336 17.7646C156.697 16.6543 157.239 15.8945 157.841 15.3685C158.444 14.8426 159.226 14.6088 160.13 14.6088C161.936 14.6088 163.201 15.6607 163.924 17.7646L170.789 37.4595H165.791L163.984 31.8491H156.035L154.288 37.4595ZM157.119 28.3426H162.9L159.949 19.2257L157.119 28.3426Z" fill="#232155"/>
<path d="M178.559 28.9854V37.4595H173.862V15.2517C176.211 14.8426 178.74 14.6088 181.45 14.6088C182.233 14.6088 182.956 14.6088 183.618 14.6672C184.28 14.7257 184.883 14.7841 185.605 14.9594C186.268 15.0763 186.87 15.2517 187.352 15.4854C187.834 15.7192 188.315 16.0114 188.797 16.362C189.279 16.7127 189.64 17.1802 189.941 17.6478C190.242 18.1153 190.483 18.7581 190.604 19.4594C190.784 20.1607 190.845 20.9205 190.845 21.7971C190.845 22.6737 190.784 23.4335 190.604 24.0763C190.423 24.7776 190.242 25.362 189.941 25.8296C189.7 26.3556 189.339 26.7646 188.918 27.1737C188.496 27.5244 188.014 27.875 187.532 28.1088C187.051 28.3426 186.448 28.5763 185.846 28.6932C185.244 28.8101 184.582 28.927 183.919 28.9854C183.257 29.0439 182.534 29.0439 181.751 29.0439C180.727 29.1023 179.704 29.1023 178.559 28.9854ZM178.559 18.4075V25.362C179.282 25.4205 180.185 25.4789 181.45 25.4789C182.233 25.4789 182.895 25.4205 183.437 25.3036C183.979 25.1867 184.461 25.0114 184.883 24.7192C185.304 24.427 185.605 24.0763 185.786 23.5504C185.967 23.0244 186.087 22.44 186.087 21.7387C186.087 20.453 185.726 19.5179 185.063 18.9335C184.401 18.3491 183.196 18.1153 181.51 18.1153C180.547 18.2322 179.583 18.2906 178.559 18.4075Z" fill="#232155"/>
<path d="M194.458 37.4605V14.8437H199.215V37.4605H194.458Z" fill="#232155"/>
<path d="M218.726 14.8437V18.5255H213.005V37.4605H208.248V18.5839H202.527V14.9021H218.726V14.8437Z" fill="#232155"/>
<path d="M223.124 37.4595H218.246L225.171 17.7646C225.533 16.6543 226.075 15.8945 226.677 15.3685C227.279 14.8426 228.062 14.6088 228.965 14.6088C230.772 14.6088 232.037 15.6607 232.759 17.7646L239.564 37.4595H234.566L232.759 31.8491H224.81L223.124 37.4595ZM225.954 28.3426H231.736L228.845 19.1672L225.954 28.3426Z" fill="#232155"/>
<path d="M256.666 33.7787V37.4021C254.137 37.519 252.15 37.5774 250.704 37.5774H248.898C248.416 37.5774 247.874 37.519 247.272 37.4605C246.67 37.4021 246.128 37.2852 245.706 37.1099C245.284 36.993 244.863 36.7593 244.441 36.467C244.02 36.1748 243.658 35.8826 243.418 35.4735C243.177 35.0644 242.996 34.5969 242.815 34.0125C242.635 33.4281 242.574 32.7852 242.574 32.0255V14.8437H247.332V30.7398C247.332 31.3826 247.392 31.9086 247.452 32.3177C247.513 32.6683 247.693 33.019 247.934 33.2528C248.175 33.4865 248.536 33.6618 248.898 33.7203C249.259 33.7787 249.861 33.8372 250.584 33.8372H256.666V33.7787Z" fill="#232155"/>
</svg>
