<svg width="18" height="16" viewBox="0 0 18 16" fill="none" xmlns="http://www.w3.org/2000/svg">
<path d="M2.33329 16C1.87496 16 1.4826 15.8368 1.15621 15.5104C0.82982 15.184 0.666626 14.7917 0.666626 14.3334V5.16669C0.666626 4.70835 0.82982 4.31599 1.15621 3.9896C1.4826 3.66321 1.87496 3.50002 2.33329 3.50002H5.66663V1.83335C5.66663 1.37502 5.82982 0.982659 6.15621 0.65627C6.4826 0.329881 6.87496 0.166687 7.33329 0.166687H10.6666C11.125 0.166687 11.5173 0.329881 11.8437 0.65627C12.1701 0.982659 12.3333 1.37502 12.3333 1.83335V3.50002H15.6666C16.125 3.50002 16.5173 3.66321 16.8437 3.9896C17.1701 4.31599 17.3333 4.70835 17.3333 5.16669V14.3334C17.3333 14.7917 17.1701 15.184 16.8437 15.5104C16.5173 15.8368 16.125 16 15.6666 16H2.33329ZM7.33329 3.50002H10.6666V1.83335H7.33329V3.50002ZM15.6666 11H11.5V12.6667H6.49996V11H2.33329V14.3334H15.6666V11ZM8.16663 11H9.83329V9.33335H8.16663V11ZM2.33329 9.33335H6.49996V7.66669H11.5V9.33335H15.6666V5.16669H2.33329V9.33335Z" fill="#F37021"/>
</svg>
