<svg width="71" height="71" viewBox="0 0 71 71" fill="none" xmlns="http://www.w3.org/2000/svg">
<path fill-rule="evenodd" clip-rule="evenodd" d="M7.88179 48.3054L7.85321 53.922C7.85321 55.051 8.04614 56.1086 8.45345 57.0876C8.86076 58.0808 9.461 58.9741 10.2542 59.7601C11.0474 60.5533 11.9406 61.1535 12.9267 61.5608C13.9057 61.961 14.9633 62.1611 16.0923 62.1611L21.7089 62.1325C22.402 62.1325 23.0451 62.2468 23.6311 62.4898C24.2099 62.7256 24.7458 63.0972 25.2389 63.5974L29.1905 67.5847C29.9837 68.385 30.8769 68.9924 31.8487 69.3997C32.8348 69.8071 33.8853 70.0143 35.0071 70.0143C36.129 70.0143 37.1866 69.8071 38.1656 69.3997C39.1445 68.9924 40.0306 68.385 40.8238 67.5847L44.7754 63.5974C45.2685 63.1043 45.8044 62.7327 46.3832 62.4898C46.9692 62.2468 47.6123 62.1254 48.3054 62.1325L53.922 62.1611C55.051 62.1611 56.1086 61.9681 57.0876 61.5608C58.0808 61.1535 58.9741 60.5533 59.7601 59.7601C60.5461 58.9669 61.1535 58.0737 61.5608 57.0876C61.961 56.1086 62.1611 55.051 62.1611 53.922L62.1325 48.3054C62.1325 47.6123 62.2468 46.9692 62.4898 46.3832C62.7256 45.8044 63.0972 45.2685 63.5974 44.7754L67.5847 40.8238C68.385 40.0306 68.9924 39.1374 69.3997 38.1656C69.8071 37.1795 70.0143 36.129 70.0143 35.0071C70.0143 33.8853 69.8071 32.8277 69.3997 31.8487C68.9924 30.8697 68.385 29.9837 67.5847 29.1905L63.5974 25.2389C63.1043 24.7458 62.7327 24.2099 62.4898 23.6311C62.2468 23.0451 62.1254 22.402 62.1325 21.7089L62.1611 16.0923C62.1611 14.9632 61.9682 13.9057 61.5608 12.9267C61.1535 11.9334 60.5533 11.0402 59.7601 10.2542C58.9669 9.461 58.0737 8.86076 57.0876 8.45345C56.1086 8.05329 55.051 7.8532 53.922 7.8532L48.3054 7.88179C47.6123 7.88179 46.9692 7.76746 46.3832 7.5245C45.8044 7.28869 45.2685 6.91711 44.7754 6.4169L40.8238 2.42956C40.0306 1.62924 39.1374 1.02185 38.1656 0.614537C37.1795 0.207227 36.129 0 35.0071 0C33.8853 0 32.8277 0.207227 31.8487 0.614537C30.8697 1.02185 29.9837 1.62924 29.1905 2.42956L25.2389 6.4169C24.7458 6.90996 24.2099 7.28154 23.6311 7.5245C23.0451 7.76746 22.402 7.88893 21.7089 7.88179L16.0923 7.8532C14.9633 7.8532 13.9057 8.04614 12.9267 8.45345C11.9334 8.86076 11.0402 9.461 10.2542 10.2542C9.461 11.0474 8.86076 11.9406 8.45345 12.9267C8.05329 13.9057 7.85321 14.9632 7.85321 16.0923L7.88179 21.7089C7.88179 22.402 7.76746 23.0451 7.5245 23.6311C7.28869 24.2099 6.91711 24.7458 6.4169 25.2389L2.42956 29.1905C1.62924 29.9837 1.02185 30.8769 0.614537 31.8487C0.207227 32.8348 0 33.8853 0 35.0071C0 36.129 0.207227 37.1866 0.614537 38.1656C1.02185 39.1445 1.62924 40.0306 2.42956 40.8238L6.4169 44.7754C6.90996 45.2685 7.28154 45.8044 7.5245 46.3832C7.76746 46.9692 7.88893 47.6123 7.88179 48.3054Z" fill="#25BC70"/>
<path d="M21 35.5L28.5 43.5L48.5 26" stroke="white" stroke-width="4.5" stroke-linecap="round"/>
</svg>
