<svg width="15" height="15" viewBox="0 0 15 15" fill="none" xmlns="http://www.w3.org/2000/svg">
<path d="M1.875 13.125H2.80125L10.5817 5.34458L9.65542 4.43917L1.875 12.2196V13.125ZM1.19458 14.75C0.936944 14.75 0.715139 14.6584 0.529167 14.4752C0.343055 14.292 0.25 14.0713 0.25 13.8131V12.3306C0.25 12.0812 0.295972 11.8401 0.387917 11.6073C0.479722 11.3745 0.621806 11.1619 0.814167 10.9696L11.2421 0.504791C11.3403 0.390347 11.447 0.319306 11.5623 0.291667C11.6776 0.263889 11.7921 0.25 11.9058 0.25C12.0197 0.25 12.1237 0.25882 12.2177 0.276459C12.3119 0.294098 12.4193 0.35368 12.54 0.455208L14.516 2.40229C14.6176 2.52299 14.6819 2.6341 14.7092 2.73563C14.7364 2.83715 14.75 2.94944 14.75 3.0725C14.75 3.19069 14.7317 3.30569 14.695 3.4175C14.6582 3.5293 14.5916 3.63319 14.4952 3.72917L4.03042 14.1858C3.83806 14.3782 3.62583 14.5203 3.39375 14.6121C3.16167 14.704 2.92118 14.75 2.67229 14.75H1.19458ZM10.1313 4.88958L9.65542 4.43917L10.5817 5.34458L10.1313 4.88958Z" fill="#633EE3"/>
</svg>
