<svg width="77" height="70" viewBox="0 0 77 70" fill="none" xmlns="http://www.w3.org/2000/svg">
<g clip-path="url(#clip0_211_4042)">
<path d="M75.6576 54.3686L47.151 4.99666C45.3671 1.89926 42.0656 0 38.4889 0C34.9123 0 31.6196 1.90814 29.8269 4.99666L1.33791 54.3686C-0.445972 57.466 -0.445972 61.2734 1.33791 64.3708C3.1218 67.4593 6.42332 69.3675 9.99997 69.3675H66.9956C70.5722 69.3675 73.8649 67.4593 75.6576 64.3708C77.4415 61.2734 77.4415 57.466 75.6576 54.3686Z" fill="#F04D4D"/>
<path d="M38.5997 52.6725H38.7437C40.1756 52.6725 41.3354 53.8324 41.3354 55.2643V55.4083C41.3354 56.8401 40.1756 58 38.7437 58H38.5997C37.1679 58 36 56.8401 36 55.4003V55.2643C36 53.8324 37.1599 52.6646 38.5997 52.6646V52.6725Z" fill="white"/>
<path d="M40.8451 47.0753C40.8451 48.6861 39.761 50 38.4227 50C37.0843 50 36.0002 48.6951 36.0002 47.0753L36 20.5547C36 18.9438 37.0843 18 38.4227 18C39.761 18 40.8523 18.9438 40.8523 20.5547L40.8526 47.0753H40.8451Z" fill="white"/>
</g>
<defs>
<clipPath id="clip0_211_4042">
<rect width="77" height="69.3586" fill="white"/>
</clipPath>
</defs>
</svg>
