<svg width="82" height="87" viewBox="0 0 82 87" fill="none" xmlns="http://www.w3.org/2000/svg">
<g clip-path="url(#clip0_710_26)">
<path d="M26.3181 30.2925L24.9524 20.063L18.6835 13.521C18.6835 13.521 17.1812 12.9747 15.952 14.3405C14.7229 15.7062 7.64823 22.0979 7.64823 22.0979C7.64823 22.0979 5.06696 25.0343 7.32045 27.6429C8.68621 28.7355 12.0869 32.5323 12.0869 32.5323L9.95636 37.8041H1.91206C1.91206 37.8041 0 38.487 0 40.5357V53.4967C0 53.4967 0 55.8185 1.63891 55.8185H9.41006L11.8684 61.1313C11.8684 61.1313 8.00333 64.7232 6.8561 65.8704C5.85909 66.963 5.87275 69.1756 7.64823 70.8145C9.42372 72.4534 15.1462 79.1319 15.1462 79.1319C15.1462 79.1319 17.1539 81.3718 19.6532 79.1319C21.4287 77.2472 24.2149 74.4064 24.2149 74.4064C24.2149 74.4064 25.1845 75.0073 27.0693 75.977C29.0906 76.9877 29.5823 75.6083 29.5823 75.6083C29.7325 72.986 30.1559 65.7475 30.1559 65.7475C30.1559 65.7475 17.7412 60.6942 18.2875 45.6982C18.6972 34.8951 26.3318 30.2788 26.3318 30.2788L26.3181 30.2925Z" fill="#F04D4D"/>
<path d="M55.6679 30.47L57.0336 20.2405L63.3024 13.6985C63.3024 13.6985 64.8048 13.1522 66.034 14.518C67.2631 15.8838 74.3378 22.2755 74.3378 22.2755C74.3378 22.2755 76.919 25.2119 74.6655 27.8205C73.2998 28.9131 69.899 32.7099 69.899 32.7099L72.0296 37.9817H80.0739C80.0739 37.9817 81.986 38.6646 81.986 40.7132V53.6742C81.986 53.6742 81.986 55.996 80.3471 55.996H72.5759L70.1176 61.3088C70.1176 61.3088 73.9827 64.9007 75.1299 66.048C76.1269 67.1406 76.1132 69.3531 74.3378 70.992C72.5623 72.6309 66.8398 79.3095 66.8398 79.3095C66.8398 79.3095 64.8321 81.5493 62.3328 79.3095C60.5573 77.4247 57.7711 74.584 57.7711 74.584C57.7711 74.584 56.8014 75.1849 54.9167 76.1546C52.8954 77.1652 52.3901 74.7342 52.3901 74.7342C52.2398 72.1119 51.8438 65.9387 51.8438 65.9387C51.8438 65.9387 64.2585 60.8854 63.7122 45.8894C63.3024 35.0863 55.6679 30.47 55.6679 30.47Z" fill="#F04D4D"/>
<path d="M34.1977 60.025C33.5694 57.2798 29.9365 16.8261 29.9365 10.5846C28.3113 0.464368 46.8446 -5.77714 52.0071 7.83945C52.0754 9.92906 48.6201 57.6486 47.9372 61.0493C47.2543 64.45 45.6291 67.482 40.3572 67.482C35.6864 67.086 34.8123 62.7975 34.184 60.0386L34.1977 60.025Z" fill="#F04D4D"/>
<path d="M41.2051 86.3431C45.2934 86.3431 48.6075 83.029 48.6075 78.9407C48.6075 74.8525 45.2934 71.5383 41.2051 71.5383C37.1169 71.5383 33.8027 74.8525 33.8027 78.9407C33.8027 83.029 37.1169 86.3431 41.2051 86.3431Z" fill="#F04D4D"/>
</g>
<defs>
<clipPath id="clip0_710_26">
<rect width="82" height="86.3431" fill="white"/>
</clipPath>
</defs>
</svg>
