<svg width="24" height="24" viewBox="0 0 24 24" fill="none" xmlns="http://www.w3.org/2000/svg">
<g clip-path="url(#clip0_659_198)">
<path d="M3.28242 0.0166016H20.6943C22.5104 0.0166016 23.9767 1.47921 23.9767 3.29084V20.6593C23.9767 22.4709 22.5104 23.9335 20.6943 23.9335H3.28242C1.46626 23.9335 0 22.4709 0 20.6593V3.29084C0.016662 1.47921 1.48292 0.0166016 3.28242 0.0166016Z" fill="#2E2D7B"/>
<mask id="mask0_659_198" style="mask-type:luminance" maskUnits="userSpaceOnUse" x="-1" y="0" width="25" height="24">
<path d="M3.28218 0.0166016H20.694C22.5102 0.0166016 23.9764 1.47921 23.9764 3.29084V20.6593C23.9764 22.4709 22.5102 23.9335 20.694 23.9335H3.28218C1.46602 23.9335 -0.000244141 22.4709 -0.000244141 20.6593V3.29084C0.0164179 1.47921 1.48268 0.0166016 3.28218 0.0166016Z" fill="white"/>
</mask>
<g mask="url(#mask0_659_198)">
<path fill-rule="evenodd" clip-rule="evenodd" d="M0.249872 23.0359L0.083252 23.1689C0.183224 23.4016 0.349845 23.601 0.566451 23.7506C0.783058 23.9002 1.04965 23.9833 1.3329 23.9833C1.51619 23.9999 2.16601 23.9833 2.99911 23.9833C4.34873 23.9999 6.44815 23.9833 8.73085 23.9833C10.1804 23.9833 11.7633 23.9999 13.2796 23.9999C15.379 23.9999 17.3784 23.9833 19.028 23.9833H22.4937C22.4937 23.9833 23.1768 23.9667 23.6267 23.5345C23.7433 23.4348 23.8433 23.3185 23.8933 23.1855C23.96 23.0525 23.9933 22.9196 23.9933 22.77C24.0099 21.6564 23.9933 12.2991 23.9933 12.2991L23.8933 12.7146L23.86 13.0636L23.76 13.8614L23.5434 14.3766L23.4268 15.0248L23.3435 14.7755L23.2935 14.8586L23.1269 15.3406L23.0769 15.3572L22.9769 15.3074L22.7436 15.8725L22.4437 16.4542L22.3771 16.4376H22.2938L22.2104 16.8198L22.1605 16.8697L21.7606 16.4708L21.494 16.6204L21.3107 16.9861L21.0774 17.3683H20.8775L20.6942 17.4016L20.5609 17.2686L20.2443 17.734L19.8444 17.95L19.6945 18.2492L19.4112 18.698L19.2113 18.4154L18.8614 18.0498L18.4615 18.2326L18.2282 18.3988L17.8783 18.5484C17.8783 18.5484 17.7117 18.3988 17.695 18.432C17.5784 18.5816 17.4618 18.7146 17.3118 18.8475C17.2785 18.8642 17.2118 19.0304 17.2118 19.0304L16.8786 19.2631L16.712 19.0636H16.3954L16.0621 19.878L15.6956 19.9777L15.6289 20.2603L15.3623 20.7589L14.9291 20.1938L14.8292 20.011L14.6625 19.6952L14.4959 20.0608L14.3293 19.7118L14.2293 19.5789L14.0627 19.3295L13.8961 18.8309L13.4795 18.4154L13.1463 18.5982L12.8297 17.9168L12.6964 18.0996L12.3798 17.601L12.1632 17.1689L11.8966 16.8198L11.7134 16.6869L11.3801 16.8863L11.1302 17.2354L11.0135 17.6343L10.7303 17.734L10.4804 17.9334L10.2804 18.0664L10.0138 18.083L9.7639 18.1993L9.53063 18.5484L9.34735 18.9307L9.2807 19.2797L9.06409 19.7118L9.0141 20.0442L8.61422 19.4791L8.21433 19.3794L8.06437 18.7811L7.79778 18.4653L7.59783 18.216L7.3479 18.3988L7.16462 18.4154L7.03132 18.6647L6.76473 18.5484L6.54812 18.3157L6.3815 18.3656L6.23154 18.1993L6.04826 18.0165L5.84832 18.1162L5.58172 18.2658L5.38178 18.2825L5.18184 18.5982L5.04854 18.7478L4.79861 18.9473L4.68197 19.1301L4.54868 19.4293L4.33207 19.662L3.99883 20.2104L3.83221 19.8448L3.73224 19.4957L3.63227 19.7617L3.71558 19.6287L3.51563 19.9113L3.43232 20.1606L3.28236 20.3766L3.21572 20.6592L3.06576 20.7257L2.89914 20.9085L2.71585 21.324L2.5659 21.5733L2.41594 21.806L2.19933 22.0221L2.01605 22.4874L1.9494 22.288L1.78278 21.7561L1.56617 21.5567L1.63282 21.6066L1.36623 21.8725L0.866368 22.3711L0.716409 22.6204L0.649761 22.8697L0.249872 23.0359Z" fill="#F37124"/>
</g>
<mask id="mask1_659_198" style="mask-type:luminance" maskUnits="userSpaceOnUse" x="3" y="2" width="18" height="9">
<path d="M20.211 2.65918H3.78223V10.0553H20.211V2.65918Z" fill="white"/>
</mask>
<g mask="url(#mask1_659_198)">
<path d="M12.8629 9.07487L12.8962 9.29094C12.7962 9.32418 12.6796 9.3408 12.5296 9.3408C12.4463 9.3408 12.3797 9.3408 12.3297 9.32418C12.2631 9.30756 12.2131 9.29094 12.1797 9.25769C12.1298 9.22445 12.0964 9.19121 12.0798 9.15797C12.0464 9.12473 12.0298 9.07487 12.0131 9.02501C11.9965 8.97515 11.9798 8.90866 11.9798 8.84218C11.9798 8.7757 11.9631 8.70922 11.9631 8.60949V8.42667C11.9631 8.37681 11.9798 8.32695 11.9798 8.27708C11.9798 8.22722 11.9965 8.19398 12.0131 8.14412C12.0298 8.11088 12.0464 8.07764 12.0631 8.0444C12.0798 8.01116 12.1131 7.99454 12.1464 7.9613L12.2464 7.91143C12.2797 7.89481 12.3297 7.87819 12.3797 7.87819C12.4297 7.87819 12.4797 7.86157 12.5296 7.86157C12.6629 7.86157 12.7962 7.87819 12.8962 7.91143L12.8629 8.1275C12.7629 8.14412 12.6629 8.14412 12.5796 8.14412H12.4963C12.463 8.14412 12.4463 8.16074 12.4297 8.16074C12.413 8.17736 12.3963 8.17736 12.3797 8.19398C12.363 8.2106 12.3464 8.2106 12.3297 8.22722C12.313 8.24384 12.313 8.26046 12.2964 8.27708C12.2797 8.29371 12.2797 8.31033 12.2797 8.32695C12.2797 8.34357 12.2631 8.37681 12.2631 8.39343V8.82556C12.2631 8.8588 12.2797 8.89204 12.2797 8.90866C12.2964 8.92528 12.2964 8.95853 12.313 8.97515C12.3297 8.99177 12.3464 9.02501 12.3797 9.04163C12.3963 9.05825 12.4297 9.05825 12.463 9.07487C12.4963 9.09149 12.5463 9.09149 12.5796 9.09149C12.6796 9.10811 12.7629 9.09149 12.8629 9.07487Z" fill="white"/>
<path d="M13.3461 9.32414H13.0461L13.4627 8.09422C13.4794 8.02774 13.5127 7.97788 13.546 7.94464C13.5793 7.9114 13.6293 7.89478 13.6793 7.89478C13.7793 7.89478 13.8626 7.96126 13.9126 8.09422L14.3125 9.32414H14.0125L13.9292 8.97511H13.446L13.3461 9.32414ZM13.5127 8.75904H13.8626L13.696 8.19394L13.5127 8.75904Z" fill="white"/>
<path d="M14.796 8.80913V9.34098H14.5127V7.94486C14.646 7.91162 14.796 7.91162 14.9626 7.91162H15.0959C15.1292 7.91162 15.1792 7.92824 15.2125 7.92824C15.2458 7.94486 15.2791 7.94486 15.3125 7.96148C15.3458 7.9781 15.3791 7.99472 15.3958 8.01134C15.4291 8.02796 15.4458 8.06121 15.4624 8.09445C15.4791 8.12769 15.4958 8.16093 15.5124 8.21079C15.5291 8.26065 15.5291 8.31051 15.5291 8.36037C15.5291 8.41024 15.5291 8.4601 15.5124 8.50996C15.4958 8.55982 15.4958 8.59306 15.4791 8.6263C15.4624 8.65954 15.4458 8.69279 15.4124 8.70941C15.3791 8.72603 15.3625 8.75927 15.3291 8.77589C15.2958 8.79251 15.2625 8.80913 15.2292 8.80913C15.1958 8.79251 15.1625 8.80913 15.1125 8.80913H14.796ZM14.796 8.14431V8.57644H14.9626C15.0126 8.57644 15.0459 8.57644 15.0792 8.55982C15.1125 8.5432 15.1459 8.5432 15.1625 8.52658C15.1958 8.50996 15.2125 8.49334 15.2125 8.4601C15.2292 8.42686 15.2292 8.39362 15.2292 8.34375C15.2292 8.26065 15.2125 8.21079 15.1625 8.17755C15.1292 8.14431 15.0459 8.12769 14.9459 8.12769C14.9126 8.12769 14.8626 8.12769 14.796 8.14431Z" fill="white"/>
<path d="M15.7456 9.32436V7.91162H16.0289V9.32436H15.7456Z" fill="white"/>
<path d="M17.1952 7.91162V8.14431H16.8453V9.32436H16.5621V8.14431H16.2122V7.91162H17.1952Z" fill="white"/>
<path d="M17.4618 9.32414H17.1619L17.5784 8.09422C17.5951 8.02774 17.6284 7.97788 17.6617 7.94464C17.6951 7.9114 17.745 7.89478 17.795 7.89478C17.895 7.89478 17.9783 7.96126 18.0283 8.09422L18.4282 9.32414H18.1283L18.0283 8.97511H17.5618L17.4618 9.32414ZM17.6284 8.75904H17.9783L17.8117 8.19394L17.6284 8.75904Z" fill="white"/>
<path d="M19.4778 9.10826V9.32433C19.3279 9.32433 19.2112 9.34095 19.1279 9.34095H19.0279C18.9946 9.34095 18.9613 9.34095 18.928 9.32433C18.8946 9.32433 18.8613 9.30771 18.8447 9.30771C18.828 9.29108 18.7947 9.29108 18.778 9.27446C18.7447 9.25784 18.728 9.24122 18.7114 9.20798C18.6947 9.19136 18.678 9.15812 18.678 9.12488C18.6614 9.09164 18.6614 9.04178 18.6614 9.00854V7.94482H18.9446V9.04178C18.9446 9.0584 18.9613 9.09164 18.978 9.10826C18.9946 9.12488 19.0113 9.1415 19.0446 9.1415H19.4778V9.10826Z" fill="white"/>
<path fill-rule="evenodd" clip-rule="evenodd" d="M7.4812 2.65942C9.53063 2.65942 11.1968 4.32147 11.1968 6.36579C11.1968 8.41012 9.53063 10.0722 7.4812 10.0722C5.43177 10.0722 3.78223 8.41012 3.78223 6.36579C3.78223 4.32147 5.44843 2.65942 7.4812 2.65942Z" fill="#F26F21"/>
<path fill-rule="evenodd" clip-rule="evenodd" d="M6.98129 6.51545L7.13125 6.16642H6.73136L6.98129 6.51545ZM6.91465 5.78415L7.13125 6.1498L7.28121 5.78415H6.91465ZM6.91465 5.78415L7.13125 5.3354H6.66471L6.91465 5.78415ZM5.71498 5.3354L6.19818 6.24952L6.68138 5.3354H5.71498ZM6.18152 6.26614L5.68165 7.23013H6.68138L6.44811 6.76476L6.18152 6.26614ZM6.43145 5.78415L6.66471 6.29938L6.73136 6.1498L6.91465 5.78415H6.43145ZM6.66471 6.29938L6.44811 6.76476H6.88132L6.66471 6.29938ZM6.98129 6.51545L6.88132 6.76476H7.16458L6.98129 6.51545ZM6.68138 7.23013H7.09793L6.88132 6.76476L6.68138 7.23013ZM7.13125 8.0944L6.68138 7.23013L6.31481 8.0944H7.13125ZM7.48115 7.23013L7.41451 7.13041L7.16458 6.76476H7.8144L7.48115 7.23013ZM6.24816 4.63733L6.91465 3.75645H5.73164L6.24816 4.63733ZM7.03128 4.63733H6.24816L6.66471 5.3354L7.03128 4.63733ZM5.71498 5.3354L6.24816 4.63733H5.34841L5.71498 5.3354ZM5.71498 5.3354H4.31537L4.99851 6.26614L5.71498 5.3354ZM5.68165 7.23013L5.23178 8.0944H6.31481L5.68165 7.23013ZM4.26538 7.23013H5.68165L4.99851 6.28276L4.26538 7.23013ZM6.01489 8.79246H6.83134L6.31481 8.0944L6.01489 8.79246ZM7.98102 6.51545L7.83106 6.16642H8.23095L7.98102 6.51545ZM8.04766 5.78415L7.83106 6.16642L7.66444 5.80077H8.04766V5.78415ZM8.04766 5.78415L7.83106 5.3354H8.31426L8.04766 5.78415ZM9.26399 5.3354L8.78079 6.24952L8.29759 5.3354H9.26399ZM8.78079 6.26614L9.28065 7.23013H8.28093L8.5142 6.76476L8.78079 6.26614ZM8.54752 5.78415L8.31426 6.29938L8.24761 6.1498L8.06433 5.78415H8.54752ZM8.29759 6.29938L8.5142 6.76476H8.08099L8.29759 6.29938ZM7.98102 6.51545L8.08099 6.76476H7.79773L7.98102 6.51545ZM8.29759 7.23013H7.89771L8.11431 6.76476L8.29759 7.23013ZM7.84772 8.0944L8.29759 7.23013L8.66416 8.0944H7.84772ZM7.48115 5.78415H7.6811L7.48115 5.3354L7.28121 5.78415H7.48115ZM7.48115 6.76476L7.53114 6.68166L7.83106 6.16642H7.13125L7.48115 6.76476ZM7.48115 8.0944L7.88104 7.23013H7.09793L7.39784 7.89495L7.48115 8.0944ZM8.71415 4.63733L8.04766 3.75645H9.23067L8.71415 4.63733ZM7.94769 4.63733H8.73081L8.31426 5.3354L7.94769 4.63733ZM9.26399 5.3354L8.73081 4.63733H9.63056L9.26399 5.3354ZM9.26399 5.3354H10.6636L9.98046 6.26614L9.26399 5.3354ZM9.28065 7.23013L9.73053 8.0944H8.66416L9.28065 7.23013ZM10.7136 7.23013H9.29732L9.99712 6.28276L10.7136 7.23013ZM8.96408 8.79246H8.14764L8.66416 8.0944L8.96408 8.79246ZM7.48115 3.75645H8.04766L7.48115 3.02515L6.93131 3.75645H7.48115ZM7.48115 4.63733H7.93103L7.48115 3.75645L7.03128 4.63733H7.48115ZM7.48115 5.3354H7.83106L7.63111 4.90326L7.49782 4.62071L7.14791 5.31878H7.48115V5.3354ZM7.48115 8.79246L7.58113 8.60963L7.84772 8.0944H7.13125L7.48115 8.79246ZM7.48115 9.68997L8.14764 8.79246H6.83134L7.48115 9.68997Z" fill="white"/>
<path fill-rule="evenodd" clip-rule="evenodd" d="M14.5125 3.54028H13.9127C13.7127 3.54028 13.5628 3.70649 13.5628 3.88931V7.24665H14.1626C14.3625 7.24665 14.5125 7.09707 14.5125 6.89762V3.54028ZM15.5289 3.54028H17.5783V4.15524C17.5783 4.33807 17.4283 4.48765 17.2451 4.48765H16.1454V4.96965H17.345V5.5846C17.345 5.76743 17.1951 5.91701 17.0118 5.91701H16.162V6.89762C16.162 7.08045 16.0121 7.24665 15.8288 7.24665H15.2123V3.88931C15.179 3.68987 15.3289 3.54028 15.5289 3.54028ZM12.8963 3.54028H12.2964C12.0965 3.54028 11.9465 3.70649 11.9465 3.88931V7.24665H12.5464C12.7463 7.24665 12.8963 7.09707 12.8963 6.89762V3.54028ZM19.0446 3.54028H18.4281C18.2448 3.54028 18.0782 3.68987 18.0782 3.88931V7.24665H19.861C20.0443 7.24665 20.1942 7.09707 20.1942 6.91424V6.29929H19.0279L19.0446 3.54028Z" fill="white"/>
</g>
<path opacity="0.25" d="M3.98218 0V23.9169" stroke="#BCBEC0" stroke-width="0.199224" stroke-miterlimit="2.61"/>
<path opacity="0.25" d="M9.33057 0V23.9169" stroke="#BCBEC0" stroke-width="0.199224" stroke-miterlimit="2.61"/>
<path opacity="0.25" d="M14.6626 0V23.9169" stroke="#BCBEC0" stroke-width="0.199224" stroke-miterlimit="2.61"/>
<path opacity="0.25" d="M23.9766 14.626H0.0166016" stroke="#BCBEC0" stroke-width="0.199224" stroke-miterlimit="2.61"/>
<path opacity="0.25" d="M20.011 0V23.9169" stroke="#BCBEC0" stroke-width="0.199224" stroke-miterlimit="2.61"/>
<path opacity="0.25" d="M23.9766 19.6289H0.0166016" stroke="#BCBEC0" stroke-width="0.199224" stroke-miterlimit="2.61"/>
<path opacity="0.25" d="M23.9766 3.95557H0.0166016" stroke="#BCBEC0" stroke-width="0.199224" stroke-miterlimit="2.61"/>
<path opacity="0.25" d="M23.9766 9.29077H0.0166016" stroke="#BCBEC0" stroke-width="0.199224" stroke-miterlimit="2.61"/>
<path d="M2.9492 11.9834L3.96559 14.4931L4.96531 11.9834H5.49849V15.0582H5.0986V13.8615L5.13193 12.5651L4.11554 15.0582H3.79896L2.78258 12.5817L2.8159 13.8615V15.0582H2.41602V11.9834H2.9492Z" fill="white"/>
<path d="M7.94763 14.2438H6.66465L6.38139 15.0416H5.96484L7.14785 11.9668H7.49775L8.66409 15.0582H8.24754L7.94763 14.2438ZM6.78128 13.9114H7.83099L7.31447 12.4654L6.78128 13.9114Z" fill="white"/>
<path d="M10.1972 13.8117H9.48076V15.0582H9.06421V11.9834H10.0806C10.4305 11.9834 10.6971 12.0665 10.8804 12.2161C11.0637 12.3823 11.1636 12.5984 11.1636 12.8975C11.1636 13.0804 11.1136 13.2466 11.0137 13.3961C10.9137 13.5457 10.7637 13.6454 10.5805 13.7119L11.2969 15.025V15.0582H10.8637L10.1972 13.8117ZM9.48076 13.4792H10.1139C10.2972 13.4959 10.4638 13.4294 10.5971 13.3297C10.6638 13.2798 10.6971 13.2133 10.7304 13.1468C10.7637 13.0804 10.7804 12.9972 10.7804 12.9141C10.7804 12.831 10.7804 12.7479 10.7471 12.6815C10.7138 12.615 10.6804 12.5319 10.6138 12.482C10.4805 12.3657 10.2972 12.3158 10.1139 12.3324H9.49742L9.48076 13.4792Z" fill="white"/>
<path d="M12.5297 13.6288L12.1465 14.0111V15.0582H11.7466V11.9834H12.1465V13.4959L13.5128 11.9834H14.0126L12.7963 13.3463L14.1126 15.0582H13.6294L12.5297 13.6288Z" fill="white"/>
<path d="M16.1953 13.6288H14.8623V14.7258H16.4119V15.0582H14.4624V11.9834H16.3952V12.3158H14.8623V13.313H16.1953V13.6288Z" fill="white"/>
<path d="M19.0946 12.3158H18.0949V15.0582H17.695V12.3158H16.7119V11.9834H19.0946V12.3158Z" fill="white"/>
<path d="M20.4275 13.6786C20.0776 13.5789 19.8277 13.4626 19.6611 13.313C19.5778 13.2465 19.5278 13.1634 19.4778 13.0637C19.4278 12.964 19.4111 12.8642 19.4111 12.7645C19.4111 12.6482 19.4278 12.5318 19.4778 12.4321C19.5278 12.3324 19.5944 12.2327 19.6944 12.1662C19.911 12 20.1776 11.9169 20.4442 11.9335C20.6441 11.9335 20.8274 11.9667 21.0107 12.0498C21.1606 12.1163 21.2939 12.2493 21.3939 12.3822C21.4772 12.5152 21.5272 12.6814 21.5272 12.8476H21.1606C21.1606 12.7645 21.144 12.6814 21.1273 12.6149C21.094 12.5318 21.044 12.4653 20.994 12.4155C20.8607 12.2991 20.6774 12.2493 20.4942 12.2493C20.3275 12.2327 20.1609 12.2825 20.0276 12.3822C19.9776 12.4321 19.9277 12.482 19.8943 12.5484C19.861 12.6149 19.8443 12.6814 19.8443 12.7479C19.8443 12.8144 19.861 12.8642 19.8943 12.9307C19.9277 12.9806 19.961 13.0304 20.011 13.0637C20.1776 13.18 20.3609 13.2631 20.5608 13.2964C20.7774 13.3462 20.9774 13.4293 21.1606 13.5291C21.2939 13.5955 21.3939 13.7119 21.4772 13.8282C21.5439 13.9446 21.5772 14.0941 21.5772 14.2437C21.5772 14.3601 21.5605 14.4764 21.5105 14.5761C21.4606 14.6759 21.3773 14.7756 21.2939 14.8421C21.094 14.9917 20.8441 15.0581 20.5108 15.0581C20.3109 15.0581 20.1109 15.0249 19.911 14.9418C19.7444 14.8753 19.5944 14.759 19.4944 14.6094C19.3945 14.4764 19.3445 14.2936 19.3445 14.1274H19.761C19.761 14.2105 19.7777 14.2936 19.811 14.3767C19.8443 14.4598 19.8943 14.5263 19.961 14.5761C20.1276 14.6925 20.3109 14.7423 20.5108 14.7423C20.6774 14.759 20.8607 14.7091 21.0107 14.6094C21.0607 14.5595 21.1107 14.5097 21.144 14.4598C21.1773 14.3933 21.194 14.3268 21.194 14.2604C21.194 14.1939 21.1773 14.1274 21.1606 14.0609C21.1273 13.9944 21.094 13.9446 21.044 13.9113C20.8274 13.8116 20.6275 13.7285 20.4275 13.6786Z" fill="white"/>
</g>
<defs>
<clipPath id="clip0_659_198">
<rect width="24" height="24" fill="white"/>
</clipPath>
</defs>
</svg>
