<svg width="15" height="13" viewBox="0 0 15 13" fill="none" xmlns="http://www.w3.org/2000/svg">
<path d="M12.5 0H2.5C1.12207 0 0 1.08052 0 2.40741V10.5926C0 11.9195 1.12207 13 2.5 13H12.5C13.8779 13 15 11.9195 15 10.5926V2.40741C15 1.08052 13.8779 0 12.5 0ZM14 10.5926C14 11.3891 13.3272 12.037 12.5 12.037H2.5C1.67285 12.037 1 11.3891 1 10.5926V4.27026L5.3945 7.29372C6.0117 7.71971 6.73923 7.94353 7.49998 7.94353C8.25975 7.94353 8.98727 7.71972 9.60545 7.29372L14 4.27026L14 10.5926ZM14 3.08822L9.0225 6.51132C8.58792 6.80942 8.0479 6.97399 7.50005 6.97399C6.9522 6.97399 6.41215 6.81037 5.9776 6.51132L1.0001 3.08822V2.40738C1.0001 1.61087 1.67295 0.962939 2.5001 0.962939H12.5001C13.3272 0.962939 14.0001 1.61087 14.0001 2.40738L14 3.08822Z" fill="#767597"/>
</svg>
