<svg width="70" height="70" viewBox="0 0 70 70" fill="none" xmlns="http://www.w3.org/2000/svg">
<path d="M35 70C54.3083 70 70 54.3083 70 35C70 15.6917 54.3083 0 35 0C15.6917 0 0 15.6917 0 35C0 54.3083 15.6917 70 35 70Z" fill="#ECB329"/>
<path d="M10.5359 29.3703C9.17779 29.0387 8.33475 27.6639 8.7868 26.341C10.6088 21.0092 13.9954 16.3257 18.532 12.9191C23.7457 9.00399 30.1556 7.01779 36.6695 7.29891C43.1835 7.58004 49.3984 10.1111 54.2554 14.4608C59.1124 18.8105 62.311 24.7098 63.3061 31.1534C64.3012 37.597 63.0312 44.1863 59.7126 49.7986C56.3941 55.4109 51.2322 59.6989 45.1065 61.9319C38.9808 64.165 32.2703 64.205 26.1185 62.045C20.7656 60.1657 16.1239 56.7219 12.7784 52.1881C11.9483 51.0633 12.3373 49.4982 13.5321 48.7724C14.7269 48.0466 16.2733 48.4371 17.1253 49.5454C19.8468 53.0855 23.5483 55.7772 27.7955 57.2684C32.8423 59.0404 38.3473 59.0076 43.3726 57.1756C48.3979 55.3437 52.6326 51.826 55.355 47.2219C58.0775 42.6178 59.1193 37.2122 58.3029 31.926C57.4866 26.6399 54.8626 21.8004 50.8781 18.232C46.8936 14.6637 41.7951 12.5873 36.4512 12.3567C31.1074 12.126 25.849 13.7554 21.5718 16.9672C17.9723 19.6702 15.2553 23.3531 13.7285 27.5494C13.2505 28.8631 11.8939 29.7019 10.5359 29.3703Z" fill="white"/>
<path fill-rule="evenodd" clip-rule="evenodd" d="M34.6364 23.0001C34.6364 21.8453 35.5726 20.9092 36.7273 20.9092C37.8821 20.9092 38.8183 21.8453 38.8183 23.0001V35.0595C40.0681 35.7826 40.9089 37.134 40.9089 38.6818C40.9089 40.9913 39.0367 42.8636 36.7271 42.8636C35.1793 42.8636 33.8279 42.0227 33.1048 40.7728H22.0912C20.9364 40.7728 20.0002 39.8366 20.0002 38.6819C20.0002 37.5271 20.9364 36.5909 22.0912 36.5909H33.1047C33.472 35.956 34.0015 35.4265 34.6364 35.0593V23.0001Z" fill="white"/>
</svg>
