<svg width="20" height="15" viewBox="0 0 20 15" fill="none" xmlns="http://www.w3.org/2000/svg">
<path d="M14.625 7.49998L11.6667 4.54165L12.8542 3.37498L14.625 5.14581L18.1667 1.60415L19.3334 2.79165L14.625 7.49998ZM7.50004 7.49998C6.58337 7.49998 5.79865 7.17359 5.14587 6.52081C4.4931 5.86804 4.16671 5.08331 4.16671 4.16665C4.16671 3.24998 4.4931 2.46526 5.14587 1.81248C5.79865 1.1597 6.58337 0.833313 7.50004 0.833313C8.41671 0.833313 9.20143 1.1597 9.85421 1.81248C10.507 2.46526 10.8334 3.24998 10.8334 4.16665C10.8334 5.08331 10.507 5.86804 9.85421 6.52081C9.20143 7.17359 8.41671 7.49998 7.50004 7.49998ZM0.833374 14.1666V11.8333C0.833374 11.3611 0.954902 10.9271 1.19796 10.5312C1.44101 10.1354 1.76393 9.83331 2.16671 9.62498C3.02782 9.19442 3.90282 8.87151 4.79171 8.65623C5.6806 8.44095 6.58337 8.33331 7.50004 8.33331C8.41671 8.33331 9.31948 8.44095 10.2084 8.65623C11.0973 8.87151 11.9723 9.19442 12.8334 9.62498C13.2362 9.83331 13.5591 10.1354 13.8021 10.5312C14.0452 10.9271 14.1667 11.3611 14.1667 11.8333V14.1666H0.833374ZM2.50004 12.5H12.5V11.8333C12.5 11.6805 12.4618 11.5416 12.3855 11.4166C12.3091 11.2916 12.2084 11.1944 12.0834 11.125C11.3334 10.75 10.5764 10.4687 9.81254 10.2812C9.04865 10.0937 8.27782 9.99998 7.50004 9.99998C6.72226 9.99998 5.95143 10.0937 5.18754 10.2812C4.42365 10.4687 3.66671 10.75 2.91671 11.125C2.79171 11.1944 2.69101 11.2916 2.61462 11.4166C2.53824 11.5416 2.50004 11.6805 2.50004 11.8333V12.5ZM7.50004 5.83331C7.95837 5.83331 8.35074 5.67012 8.67712 5.34373C9.00351 5.01734 9.16671 4.62498 9.16671 4.16665C9.16671 3.70831 9.00351 3.31595 8.67712 2.98956C8.35074 2.66317 7.95837 2.49998 7.50004 2.49998C7.04171 2.49998 6.64935 2.66317 6.32296 2.98956C5.99657 3.31595 5.83337 3.70831 5.83337 4.16665C5.83337 4.62498 5.99657 5.01734 6.32296 5.34373C6.64935 5.67012 7.04171 5.83331 7.50004 5.83331Z" fill="#F37021"/>
</svg>
