<svg width="16" height="15" viewBox="0 0 16 15" fill="none" xmlns="http://www.w3.org/2000/svg">
<path d="M6.24634 4.66972C6.81098 4.02083 6.74562 3.03277 6.10044 2.46487L4.3061 0.886978C3.99346 0.611613 3.59272 0.474406 3.18061 0.503945C2.76567 0.530625 2.38766 0.718331 2.11576 1.03372L1.22331 2.05801C0.660569 2.70401 0.408554 3.55774 0.52982 4.40196C0.753402 5.94839 1.56341 8.29717 4.1707 10.7125L5.24977 11.6634C7.9877 13.9759 10.43 14.481 11.9989 14.5H12.033C12.8724 14.5 13.6673 14.137 14.2234 13.4976L15.1158 12.4733C15.6805 11.8245 15.6151 10.8364 14.9699 10.2685L13.1803 8.69253C12.8677 8.41716 12.465 8.27995 12.0501 8.30949C11.6351 8.33903 11.2543 8.52864 10.9833 8.84593L10.4717 9.43859C10.2586 9.68727 9.92886 9.79494 9.63043 9.7092C7.51776 9.11178 6.22747 7.27472 5.64564 6.23329C5.46848 5.916 5.50732 5.51867 5.74512 5.24806L6.24634 4.66972ZM5.51591 4.02656L5.00907 4.60969C4.50223 5.19281 4.41506 6.03893 4.79306 6.71448C5.4477 7.88741 6.91237 9.9589 9.36235 10.6516C10.0198 10.8374 10.7427 10.6126 11.2003 10.078L11.71 9.48537C11.8123 9.36627 11.9553 9.29481 12.1098 9.28338C12.2651 9.27385 12.4158 9.3253 12.5342 9.42725L14.3238 11.0032C14.5663 11.2157 14.591 11.5882 14.3797 11.8303L13.4873 12.8545C13.1111 13.2862 12.5702 13.5301 12.0055 13.5225C10.5968 13.5053 8.38649 13.0394 5.87678 10.9193L4.81476 9.98271C2.42544 7.76835 1.6866 5.6482 1.48748 4.25808C1.4079 3.69686 1.57464 3.12613 1.95076 2.69448L2.8432 1.6702C2.94552 1.553 3.08857 1.48249 3.24299 1.4701C3.25531 1.4701 3.26952 1.46724 3.28184 1.46724C3.42205 1.46724 3.55847 1.5187 3.66457 1.61398L5.45892 3.19187C5.70239 3.41102 5.72718 3.78264 5.51591 4.02656Z" fill="#767597"/>
</svg>
