<svg width="21" height="14" viewBox="0 0 21 14" fill="none" xmlns="http://www.w3.org/2000/svg">
<path d="M4.48931 8.30338H19.6781C20.0439 8.30338 20.3557 8.1757 20.6134 7.92034C20.8711 7.66498 21 7.35607 21 6.99362C21 6.63117 20.8711 6.32227 20.6134 6.06691C20.3557 5.81154 20.0439 5.68386 19.6781 5.68386H4.48931L8.00594 2.19941C8.25534 1.95228 8.38005 1.6475 8.38005 1.28505C8.38005 0.922598 8.25534 0.617811 8.00594 0.370687C7.75653 0.123562 7.44893 0 7.08314 0C6.71734 0 6.40974 0.123562 6.16033 0.370687L0.39905 6.07926C0.266033 6.21106 0.166271 6.3511 0.0997625 6.49937C0.0332542 6.64765 0 6.8124 0 6.99362C0 7.17485 0.0332542 7.34372 0.0997625 7.50023C0.166271 7.65674 0.266033 7.8009 0.39905 7.9327L6.16033 13.6413C6.40974 13.8884 6.71734 14.0078 7.08314 13.9996C7.44893 13.9914 7.75653 13.8637 8.00594 13.6166C8.25534 13.3694 8.38005 13.0646 8.38005 12.7022C8.38005 12.3397 8.25534 12.035 8.00594 11.7878L4.48931 8.30338Z" fill="#5A596D"/>
</svg>
